<svg width="770" height="632" viewBox="0 0 770 632" fill="none" xmlns="http://www.w3.org/2000/svg">
<g clip-path="url(#clip0)">
<path d="M176.526 127.79L179.804 398.616L321.442 467.712L318.164 196.887L176.526 127.79Z" fill="#F2F2F2"/>
<path d="M133.487 106.156L27.6514 323.752L171.255 393.808L167.977 122.981L133.487 106.156Z" fill="#F2F2F2"/>
<path d="M770 411.84L484.154 272.394L487.432 543.22L664.165 629.437L770 411.84Z" fill="#F2F2F2"/>
<path d="M330.969 196.887L334.247 467.712L475.884 536.809L472.606 265.982L330.969 196.887Z" fill="#F2F2F2"/>
<path d="M650.66 208.422L632.874 209.113L633.761 232.015L651.547 231.325L650.66 208.422Z" fill="#99FFCC"/>
<path d="M570.427 288.631C570.427 288.631 545.796 276.845 546.19 287.024C546.584 297.202 571.018 303.899 571.018 303.899L570.427 288.631Z" fill="#FFB9B9"/>
<path d="M583.941 374.755C583.941 374.755 572.32 403.24 568.027 423.795C563.733 444.35 557.194 472.637 565.605 492.699C574.016 512.76 597.929 571.722 598.175 578.083C598.422 584.445 596.127 590.906 601.209 590.708C606.291 590.511 633.945 581.791 635.067 577.925C636.19 574.059 625.632 564.275 625.632 564.275L599.562 482.46L626.763 429.159L646.382 508.676L650.225 607.918C650.225 607.918 669.084 602.089 671.822 607.08C671.822 607.08 680.272 595.283 681.345 590.144C682.419 585.006 677.355 487.085 677.355 487.085C677.355 487.085 694.666 375.552 680.691 376.095C666.716 376.638 611.978 343.084 583.941 374.755Z" fill="#2F2E41"/>
<path d="M601.011 585.619C601.011 585.619 588.12 614.153 586.899 615.475C585.678 616.796 577.278 629.865 583.63 629.619C589.982 629.372 604.981 622.418 616.021 611.795C627.061 601.172 641.616 582.768 640.297 581.545C638.977 580.322 629.936 576.85 629.936 576.85L601.011 585.619Z" fill="#2F2E41"/>
<path d="M652.519 601.458C652.519 601.458 651.741 614.231 649.397 619.419C647.054 624.607 647.349 632.241 653.701 631.994C660.054 631.747 676.471 628.561 676.471 628.561C676.471 628.561 677.446 620.878 676.126 619.655C674.806 618.432 669.183 604.634 671.576 600.718C673.969 596.802 652.519 601.458 652.519 601.458Z" fill="#2F2E41"/>
<path d="M661.917 186.96C661.917 186.96 675.459 208.096 680.738 212.988C686.017 217.88 671.166 228.651 671.166 228.651L644.585 232.232C644.585 232.232 644.919 208.008 643.55 205.513C642.182 203.017 661.917 186.96 661.917 186.96Z" fill="#FFB9B9"/>
<path d="M638.813 214.617C638.813 214.617 644.289 224.598 649.371 224.401C654.453 224.203 680.738 212.988 681.86 209.122C682.983 205.256 690.567 236.818 690.567 236.818L626.249 350.176L610.561 339.317L618.162 272.76L624.405 236.838L638.813 214.617Z" fill="#99FFCC"/>
<path d="M684.232 316.067C681.667 321.442 680.064 327.048 680.286 332.786C680.296 333.04 680.306 333.295 680.329 333.549C680.937 345.325 685.269 358.944 686.823 368.848C687.951 375.953 687.63 381.139 683.478 382.358C673.413 385.297 684.946 387.398 646.005 400.379C607.065 413.359 600.269 402.155 600.171 399.61C600.072 397.065 605.686 377.734 604.366 376.511C603.046 375.288 585.9 392.519 580.72 390.171C575.54 387.824 580.129 374.903 580.129 374.903C580.129 374.903 591.799 347.691 591.553 341.329C591.306 334.967 609.23 304.963 609.23 304.963L621.421 225.486C621.421 225.486 626.108 215.11 632.411 213.591C638.714 212.072 643.944 215.692 643.944 215.692L633.396 239.038L622.268 280.246L624.13 295.465C624.13 295.465 637.07 268.203 645.569 257.679C654.068 247.155 672.189 222.24 672.189 222.24C672.189 222.24 676.419 207.944 673.226 203.672C670.032 199.387 686.547 198.746 693.589 216.312C697.322 225.622 703.381 239.505 707.177 252.432C710.56 263.883 712.157 274.589 708.806 280.708C703.684 290.056 690.801 302.343 684.232 316.067Z" fill="#575A89"/>
<path opacity="0.1" d="M708.807 280.708C703.685 290.056 690.801 302.343 684.233 316.067C682.517 309.877 680.424 303.473 680.424 303.473C680.424 303.473 672.397 260.46 696.141 249.344C700.076 248.963 704.011 250.064 707.178 252.432C710.56 263.883 712.158 274.589 708.807 280.708Z" fill="black"/>
<path d="M614.548 277.997L594.418 283.876L566.468 284.962L563.593 309.284L609.526 312.597C609.526 312.597 620.999 280.295 614.548 277.997Z" fill="#575A89"/>
<path d="M647.372 359.777C647.372 359.777 620.442 364.252 626.589 372.368C632.735 380.484 656.592 371.952 656.592 371.952L647.372 359.777Z" fill="#FFB9B9"/>
<path opacity="0.1" d="M680.329 333.549C680.938 345.325 685.27 358.944 686.824 368.848C678.245 376.98 670.087 384.152 667.012 384.272C660.66 384.518 650.447 383.641 646.685 385.061C642.923 386.481 640.717 362.356 640.717 362.356C640.717 362.356 642.962 354.624 652.978 350.412C659.738 347.563 672.697 339.834 680.329 333.549Z" fill="black"/>
<path d="M695.845 241.71C695.845 241.71 717.344 238.326 716.183 274.05C715.022 309.775 718.449 332.578 709.802 339.285C701.156 345.992 673.069 376.391 666.716 376.638C660.364 376.884 650.152 376.007 646.389 377.427C642.627 378.847 640.421 354.722 640.421 354.722C640.421 354.722 642.666 346.99 652.682 342.778C662.698 338.566 686.294 323.633 686.097 318.543C685.9 313.454 680.128 295.839 680.128 295.839C680.128 295.839 672.101 252.826 695.845 241.71Z" fill="#575A89"/>
<path d="M642.959 218.257C658.407 218.257 670.93 205.716 670.93 190.245C670.93 174.774 658.407 162.232 642.959 162.232C627.511 162.232 614.988 174.774 614.988 190.245C614.988 205.716 627.511 218.257 642.959 218.257Z" fill="#FFB9B9"/>
<path d="M624.126 150.095C623.451 150.677 622.643 151.083 621.774 151.277C621.337 151.354 620.888 151.256 620.524 151.004C620.159 150.751 619.909 150.364 619.829 149.927C619.189 151.256 618.467 152.673 617.16 153.355C615.854 154.037 613.833 153.465 613.645 152.002C613.454 153.113 612.963 154.151 612.226 155.002C611.415 155.776 609.945 155.972 609.237 155.102C609.809 158.234 609.456 161.455 609.636 164.633C609.816 167.812 610.662 171.181 613.06 173.271C616.557 176.32 621.816 175.567 626.416 174.99C627.111 174.844 627.833 174.883 628.509 175.105C630.231 175.839 630.153 178.241 630.176 180.116C630.316 183.405 631.617 186.538 633.845 188.959C636.074 191.38 639.087 192.931 642.35 193.338C644.175 193.62 646.039 193.164 647.529 192.071C648.835 190.963 649.502 189.156 650.999 188.323C653.433 186.968 656.386 188.944 658.166 191.089C659.946 193.234 661.7 195.873 664.457 196.266C668.104 196.785 670.881 193.063 672.244 189.636C674.124 184.833 675.025 179.701 674.893 174.543C674.761 169.386 673.6 164.307 671.477 159.606C663.863 142.983 637.852 140.354 624.126 150.095Z" fill="#2F2E41"/>
<path d="M476.108 173.169C507.929 173.169 533.726 147.334 533.726 115.465C533.726 83.5952 507.929 57.7599 476.108 57.7599C444.286 57.7599 418.489 83.5952 418.489 115.465C418.489 147.334 444.286 173.169 476.108 173.169Z" fill="#99FFCC"/>
<path d="M413.423 54.5834C426.698 68.2209 447.091 69.8727 447.091 69.8727C447.091 69.8727 445.961 49.4137 432.685 35.7761C419.41 22.1386 399.017 20.4869 399.017 20.4869C399.017 20.4869 400.147 40.9459 413.423 54.5834Z" fill="#3F3D56"/>
<path d="M417.876 47.5741C436.237 52.5339 447.619 69.5609 447.619 69.5609C447.619 69.5609 429.231 78.5463 410.87 73.5865C392.509 68.6266 381.127 51.5997 381.127 51.5997C381.127 51.5997 399.514 42.6142 417.876 47.5741Z" fill="#99FFCC"/>
<path d="M435.9 34.5712C436.022 53.6168 449.571 68.97 449.571 68.97C449.571 68.97 462.923 53.4443 462.801 34.3987C462.68 15.3532 449.13 0 449.13 0C449.13 0 435.778 15.5257 435.9 34.5712Z" fill="#3F3D56"/>
<path d="M443.962 32.6139C453.757 48.9394 450.168 69.1119 450.168 69.1119C450.168 69.1119 430.698 62.8155 420.903 46.49C411.108 30.1645 414.698 9.99191 414.698 9.99191C414.698 9.99191 434.168 16.2883 443.962 32.6139Z" fill="#99FFCC"/>
<path d="M470.894 140.688C487.246 140.688 500.503 127.412 500.503 111.035C500.503 94.6574 487.246 81.381 470.894 81.381C454.541 81.381 441.284 94.6574 441.284 111.035C441.284 127.412 454.541 140.688 470.894 140.688Z" fill="#F2F2F2"/>
<path d="M457.037 129.827C462.34 129.827 466.64 125.521 466.64 120.21C466.64 114.898 462.34 110.592 457.037 110.592C451.733 110.592 447.434 114.898 447.434 120.21C447.434 125.521 451.733 129.827 457.037 129.827Z" fill="#3F3D56"/>
<path d="M166.453 627.467C198.275 627.467 224.072 601.632 224.072 569.763C224.072 537.893 198.275 512.058 166.453 512.058C134.632 512.058 108.835 537.893 108.835 569.763C108.835 601.632 134.632 627.467 166.453 627.467Z" fill="#99FFCC"/>
<path d="M141.296 486.02C146.262 504.405 163.272 515.791 163.272 515.791C163.272 515.791 172.23 497.369 167.264 478.984C162.298 460.599 145.288 449.213 145.288 449.213C145.288 449.213 136.33 467.634 141.296 486.02Z" fill="#3F3D56"/>
<path d="M148.593 482.068C162.22 495.354 163.885 515.776 163.885 515.776C163.885 515.776 143.456 514.659 129.829 501.374C116.202 488.089 114.537 467.666 114.537 467.666C114.537 467.666 134.966 468.783 148.593 482.068Z" fill="#99FFCC"/>
<path d="M170.658 479.499C161.505 496.194 165.876 516.212 165.876 516.212C165.876 516.212 185.086 509.16 194.239 492.465C203.391 475.77 199.02 455.753 199.02 455.753C199.02 455.753 179.81 462.804 170.658 479.499Z" fill="#3F3D56"/>
<path d="M178.651 481.72C179.27 500.756 166.328 516.626 166.328 516.626C166.328 516.626 152.383 501.633 151.764 482.597C151.145 463.561 164.087 447.691 164.087 447.691C164.087 447.691 178.032 462.685 178.651 481.72Z" fill="#99FFCC"/>
<path d="M164.052 593.005C180.405 593.005 193.661 579.728 193.661 563.351C193.661 546.974 180.405 533.697 164.052 533.697C147.699 533.697 134.442 546.974 134.442 563.351C134.442 579.728 147.699 593.005 164.052 593.005Z" fill="#F2F2F2"/>
<path d="M173.656 558.542C178.959 558.542 183.259 554.236 183.259 548.925C183.259 543.613 178.959 539.307 173.656 539.307C168.352 539.307 164.053 543.613 164.053 548.925C164.053 554.236 168.352 558.542 173.656 558.542Z" fill="#3F3D56"/>
<path d="M308.099 626.666H8.00293V628.269H308.099V626.666Z" fill="#2F2E41"/>
<path d="M750.64 629.872H450.544V631.475H750.64V629.872Z" fill="#2F2E41"/>
<path d="M76.7351 627.835L75.3128 627.099C93.7843 591.335 83.9069 544.89 72.3689 512.225C64.5342 490.27 54.5412 469.148 42.5371 449.171L43.8899 448.315C55.9563 468.394 66.0014 489.623 73.8772 511.69C85.5215 544.654 95.4684 591.562 76.7351 627.835Z" fill="#2F2E41"/>
<path d="M90.4307 448.601L80.0479 505.507L81.6218 505.795L92.0046 448.889L90.4307 448.601Z" fill="#2F2E41"/>
<path d="M21.3928 497.086L20.2207 498.178L73.8376 555.883L75.0097 554.79L21.3928 497.086Z" fill="#2F2E41"/>
<path d="M117.783 560.473L90.5869 598.15L91.8842 599.089L119.08 561.412L117.783 560.473Z" fill="#2F2E41"/>
<path d="M95.2301 433.516C99.6498 433.516 103.233 429.927 103.233 425.501C103.233 421.075 99.6498 417.487 95.2301 417.487C90.8104 417.487 87.2275 421.075 87.2275 425.501C87.2275 429.927 90.8104 433.516 95.2301 433.516Z" fill="#99FFCC"/>
<path d="M8.00255 495.228C12.4222 495.228 16.0051 491.639 16.0051 487.213C16.0051 482.787 12.4222 479.198 8.00255 479.198C3.58286 479.198 0 482.787 0 487.213C0 491.639 3.58286 495.228 8.00255 495.228Z" fill="#3F3D56"/>
<path d="M43.2135 503.242C47.6332 503.242 51.216 499.654 51.216 495.227C51.216 490.801 47.6332 487.213 43.2135 487.213C38.7938 487.213 35.2109 490.801 35.2109 495.227C35.2109 499.654 38.7938 503.242 43.2135 503.242Z" fill="#3F3D56"/>
<path d="M27.2086 534.499C31.6283 534.499 35.2112 530.91 35.2112 526.484C35.2112 522.058 31.6283 518.47 27.2086 518.47C22.7889 518.47 19.2061 522.058 19.2061 526.484C19.2061 530.91 22.7889 534.499 27.2086 534.499Z" fill="#99FFCC"/>
<path d="M127.241 554.535C131.661 554.535 135.243 550.947 135.243 546.52C135.243 542.094 131.661 538.506 127.241 538.506C122.821 538.506 119.238 542.094 119.238 546.52C119.238 550.947 122.821 554.535 127.241 554.535Z" fill="#3F3D56"/>
<path d="M100.833 563.351C105.252 563.351 108.835 559.763 108.835 555.336C108.835 550.91 105.252 547.322 100.833 547.322C96.4129 547.322 92.8301 550.91 92.8301 555.336C92.8301 559.763 96.4129 563.351 100.833 563.351Z" fill="#3F3D56"/>
<path d="M119.238 588.997C123.658 588.997 127.24 585.409 127.24 580.983C127.24 576.557 123.658 572.968 119.238 572.968C114.818 572.968 111.235 576.557 111.235 580.983C111.235 585.409 114.818 588.997 119.238 588.997Z" fill="#3F3D56"/>
<path d="M35.2115 443.133C39.6312 443.133 43.2141 439.545 43.2141 435.118C43.2141 430.692 39.6312 427.104 35.2115 427.104C30.7918 427.104 27.209 430.692 27.209 435.118C27.209 439.545 30.7918 443.133 35.2115 443.133Z" fill="#3F3D56"/>
<path d="M549.453 143.652H163.729V375.272H549.453V143.652Z" fill="#3F3D56"/>
<path d="M178.934 156.476C181.144 156.476 182.935 154.681 182.935 152.468C182.935 150.255 181.144 148.461 178.934 148.461C176.724 148.461 174.933 150.255 174.933 152.468C174.933 154.681 176.724 156.476 178.934 156.476Z" fill="#99FFCC"/>
<path d="M193.339 156.476C195.549 156.476 197.34 154.681 197.34 152.468C197.34 150.255 195.549 148.461 193.339 148.461C191.129 148.461 189.338 150.255 189.338 152.468C189.338 154.681 191.129 156.476 193.339 156.476Z" fill="#99FFCC"/>
<path d="M207.743 156.476C209.953 156.476 211.745 154.681 211.745 152.468C211.745 150.255 209.953 148.461 207.743 148.461C205.534 148.461 203.742 150.255 203.742 152.468C203.742 154.681 205.534 156.476 207.743 156.476Z" fill="#99FFCC"/>
<path d="M549.452 161.43H164.052V163.033H549.452V161.43Z" fill="#2F2E41"/>
<path d="M388.601 208.57V280.701H283.904L264.562 303.943L266.77 280.701H257.359V208.57H388.601Z" fill="#99FFCC"/>
<path opacity="0.1" d="M388.601 233.415H341.386V280.701H388.601V233.415Z" fill="black"/>
<path d="M351.79 243.834H483.032V315.965H473.619L475.83 339.207L456.49 315.965H351.79V243.834Z" fill="#99FFCC"/>
<path opacity="0.1" d="M265.362 315.574C281.273 315.574 294.171 314.314 294.171 312.759C294.171 311.204 281.273 309.944 265.362 309.944C249.451 309.944 236.553 311.204 236.553 312.759C236.553 314.314 249.451 315.574 265.362 315.574Z" fill="black"/>
<path opacity="0.1" d="M475.829 353.633C493.95 353.633 508.64 352.198 508.64 350.427C508.64 348.657 493.95 347.221 475.829 347.221C457.708 347.221 443.019 348.657 443.019 350.427C443.019 352.198 457.708 353.633 475.829 353.633Z" fill="black"/>
</g>
<defs>
<clipPath id="clip0">
<rect width="770" height="632" fill="white"/>
</clipPath>
</defs>
</svg>
