<svg width="60" height="60" viewBox="0 0 60 60" fill="none" xmlns="http://www.w3.org/2000/svg">
<path d="M30.0001 59.9999C23.0595 59.9999 16.3335 57.5934 10.9683 53.1903C5.60309 48.7872 1.93057 42.66 0.576503 35.8527C-0.777568 29.0454 0.270587 21.9792 3.54238 15.8581C6.81416 9.73702 12.1071 4.93972 18.5195 2.28364C24.9318 -0.372446 32.0667 -0.722972 38.7085 1.29178C45.3503 3.30654 51.088 7.56192 54.944 13.3329C58.8001 19.1038 60.5358 26.0332 59.8555 32.9404C59.1752 39.8477 56.121 46.3053 51.2132 51.2131C48.4339 54.0076 45.128 56.2231 41.4868 57.7313C37.8455 59.2396 33.9413 60.0106 30.0001 59.9999V59.9999ZM30.0001 0.229159C13.5844 0.229159 0.229254 13.5843 0.229254 30C0.229254 46.4157 13.5844 59.7709 30.0001 59.7709C46.4158 59.7709 59.7709 46.4157 59.7709 30C59.7709 13.5843 46.4158 0.229159 30.0001 0.229159V0.229159Z" fill="#2F2E41"/>
<path d="M45.6298 39.4955L45.6264 39.4972L30.8404 47.7305L14.6494 39.635L14.3704 39.4955L15.2107 22.6894L29.832 12.2695L29.9934 12.3704L45.1256 21.849L45.6298 39.4955Z" fill="#99FFCC"/>
<path opacity="0.3" d="M45.6264 39.4972L30.8404 47.7305L14.6493 39.635L28.9916 29.5799L45.6264 39.4972Z" fill="black"/>
<path opacity="0.1" d="M45.6299 39.4955L28.9917 29.5799L29.9934 12.3704L45.1257 21.8491L45.6299 39.4955Z" fill="black"/>
<path d="M14.9955 27.8753L14.9133 27.759L29.6979 17.3234L45.3157 27.1153L45.2401 27.236L29.7025 17.4944L14.9955 27.8753Z" fill="#F2F2F2"/>
<path d="M14.7088 33.5848L14.6289 33.4671L29.3385 23.4804L29.377 23.5023L45.3288 32.5431L45.2585 32.667L29.3452 23.6479L14.7088 33.5848Z" fill="#F2F2F2"/>
<path d="M20.3214 42.5127L20.2463 42.3917L35.0711 33.2056V15.5956H35.2135V33.285L20.3214 42.5127Z" fill="#F2F2F2"/>
<path d="M26.14 45.4216L26.0643 45.301L40.3388 36.3478V18.8952H40.4812V36.4266L26.14 45.4216Z" fill="#F2F2F2"/>
<path d="M40.285 42.5144L23.6837 33.2905L23.6861 33.2461L24.56 15.9724L24.7022 15.9797L23.8305 33.209L40.3542 42.3899L40.285 42.5144Z" fill="#F2F2F2"/>
<path d="M35.062 45.4244L18.6471 36.8224L18.6496 36.7767L19.6173 19.4944L19.7595 19.5024L18.7945 36.7389L35.1281 45.2983L35.062 45.4244Z" fill="#F2F2F2"/>
<path d="M48.4351 12.252C51.597 12.252 54.1603 9.68878 54.1603 6.52686C54.1603 3.36494 51.597 0.801697 48.4351 0.801697C45.2732 0.801697 42.71 3.36494 42.71 6.52686C42.71 9.68878 45.2732 12.252 48.4351 12.252Z" fill="#3F3D56"/>
</svg>
