<svg width="661" height="581" viewBox="0 0 661 581" fill="none" xmlns="http://www.w3.org/2000/svg">
<path d="M659.562 356.207C645.612 330.392 625.84 308.197 601.82 291.388C600.104 290.201 598.123 289.452 596.051 289.209C598.88 270.565 598.286 249.964 587.785 234.428C562.866 197.564 435.904 235.608 435.904 235.608C346.91 204.697 269.777 243.931 269.777 243.931C269.777 243.931 171.289 228.476 126.203 240.37C104.938 245.979 99.7733 267.71 100.257 289.118H100.186C98.3008 289.115 96.439 289.537 94.7394 290.355C93.0398 291.172 91.546 292.363 90.3694 293.84C78.3781 308.851 42.1522 355.087 43.1389 364.015C44.327 374.719 83.4827 513.82 81.7107 581L628.713 574.947C628.713 574.947 637.774 439.76 660.438 365.761C661.421 362.586 661.106 359.15 659.562 356.207Z" fill="#3F3D56"/>
<path opacity="0.1" d="M88.8391 364.62L111.382 319.434L130.361 407.416L130.582 448.254L88.8391 364.62Z" fill="black"/>
<path opacity="0.1" d="M606.17 364.62L583.627 319.434L557.479 402.856L562.514 450.272L606.17 364.62Z" fill="black"/>
<path d="M128.709 405.015L557.52 402.664L562.272 450.222L130.361 449.031L128.709 405.015Z" fill="#3F3D56"/>
<path opacity="0.1" d="M128.709 405.015L557.52 402.664L562.272 450.222L130.361 449.031L128.709 405.015Z" fill="black"/>
<path opacity="0.1" d="M553.986 445.591H139.11C133.288 445.591 128.569 450.32 128.569 456.154V486.157C128.569 491.991 133.288 496.72 139.11 496.72H553.986C559.808 496.72 564.527 491.991 564.527 486.157V456.154C564.527 450.32 559.808 445.591 553.986 445.591Z" fill="white"/>
<path d="M475.312 274.55C475.312 274.55 473.862 272.532 472.15 273.621C471.335 274.156 467.499 278.999 463.733 283.922C461.881 286.333 460.038 288.764 458.578 290.701C456.776 293.082 455.558 294.737 455.558 294.737L454.833 296.099L450.433 304.341L446.295 312.089L445.288 315.741L459.263 320.503L475.171 316.155L474.486 313.199L474.365 312.694L474.496 305.895L474.859 286.726L475.03 278.101V277.092L475.312 274.55Z" fill="#FFE09C"/>
<path d="M443.315 321.805C443.315 321.805 458.417 327.202 466.16 324.377C466.16 324.377 472.855 322.239 475.493 320.17C475.493 320.17 478.302 318.697 474.486 313.895C474.486 313.895 464.71 319.898 455.457 317.537L446.204 315.166L443.315 321.805Z" fill="#E7C4C3"/>
<path d="M460.16 314.976C462.516 313.593 463.477 310.85 462.308 308.85C461.138 306.851 458.281 306.351 455.925 307.734C453.569 309.117 452.608 311.859 453.777 313.859C454.947 315.859 457.805 316.359 460.16 314.976Z" fill="#FF7F8E"/>
<path d="M470.204 302.91C472.559 301.527 473.521 298.785 472.351 296.785C471.182 294.785 468.324 294.285 465.968 295.668C463.613 297.052 462.651 299.794 463.821 301.794C464.99 303.794 467.848 304.293 470.204 302.91Z" fill="#FF7F8E"/>
<path d="M474.486 305.895C473.728 305.578 472.905 305.446 472.085 305.511C471.266 305.576 470.474 305.836 469.774 306.268C467.418 307.651 466.452 310.395 467.63 312.392C468.808 314.39 471.657 314.894 474.003 313.512C474.164 313.411 474.325 313.31 474.476 313.199L474.355 312.695L474.486 305.895Z" fill="#FF7F8E"/>
<path d="M457.4 297.895C457.12 297.431 456.746 297.032 456.302 296.722C455.858 296.413 455.354 296.201 454.823 296.099L450.423 304.341C451.193 304.689 452.037 304.842 452.88 304.785C453.722 304.729 454.539 304.466 455.256 304.019C457.612 302.636 458.568 299.892 457.4 297.895Z" fill="#FF7F8E"/>
<path d="M467.187 285.819C466.823 285.236 466.317 284.756 465.716 284.424C465.115 284.092 464.44 283.919 463.753 283.922C461.901 286.334 460.058 288.765 458.598 290.702L458.659 290.823C459.827 292.841 462.686 293.315 465.042 291.933C467.398 290.551 468.335 287.817 467.187 285.819Z" fill="#FF7F8E"/>
<path d="M475.02 278.091C474.501 278.221 474.002 278.425 473.54 278.696C471.184 280.078 470.228 282.822 471.395 284.82C471.761 285.406 472.27 285.888 472.875 286.22C473.48 286.552 474.159 286.723 474.849 286.717L475.02 278.091Z" fill="#FF7F8E"/>
<path d="M451.571 311.172L450.765 309.81C451.971 309.449 453.084 308.829 454.027 307.994C454.088 307.933 454.138 307.863 454.188 307.802C455.195 306.531 454.984 309.174 454.984 309.174C454.984 309.174 452.507 311.283 451.571 311.172Z" fill="#94CC79"/>
<path d="M463.451 309.063L462.646 307.691C463.851 307.328 464.964 306.709 465.908 305.875C465.908 305.814 466.019 305.754 466.069 305.683C467.076 304.422 466.865 307.055 466.865 307.055C466.865 307.055 464.388 309.174 463.451 309.063Z" fill="#94CC79"/>
<path d="M462.364 303.413L461.559 302.041C462.763 301.681 463.876 301.065 464.821 300.235C464.871 300.165 464.931 300.104 464.982 300.043C465.989 298.772 465.777 301.405 465.777 301.405C465.777 301.405 463.3 303.504 462.364 303.413Z" fill="#94CC79"/>
<path d="M463.804 293.224L462.998 291.852C464.203 291.489 465.316 290.869 466.26 290.036C466.26 289.975 466.371 289.915 466.422 289.844C467.428 288.573 467.217 291.216 467.217 291.216C467.217 291.216 464.74 293.325 463.804 293.224Z" fill="#94CC79"/>
<path d="M470.62 280.896L469.825 279.524C471.027 279.162 472.137 278.542 473.077 277.708C473.136 277.648 473.19 277.584 473.238 277.516C474.245 276.255 474.043 278.888 474.043 278.888C474.043 278.888 471.556 280.997 470.62 280.896Z" fill="#94CC79"/>
<path d="M469.855 293.476L469.049 292.104C470.255 291.746 471.368 291.13 472.312 290.298C472.312 290.228 472.422 290.167 472.473 290.106C473.479 288.835 473.268 291.468 473.268 291.468C473.268 291.468 470.791 293.587 469.855 293.476Z" fill="#94CC79"/>
<path d="M440.838 317.537C440.838 317.537 438.905 322.581 443.315 321.774C445.277 319.495 446.619 316.746 447.211 313.794C447.211 313.794 456.746 292.861 459.565 290.944C459.565 290.944 471.989 273.924 473.328 273.672C473.328 273.672 473.761 272.018 469.422 275.518C465.082 279.019 455.578 292.497 455.578 292.497L446.516 307.297L444.382 313.199L440.838 317.537Z" fill="#E7C4C3"/>
<path opacity="0.2" d="M440.838 317.537C440.838 317.537 438.905 322.581 443.315 321.774C445.277 319.495 446.619 316.746 447.211 313.794C447.211 313.794 456.746 292.861 459.565 290.944C459.565 290.944 471.989 273.924 473.328 273.672C473.328 273.672 473.761 272.018 469.422 275.518C465.082 279.019 455.578 292.497 455.578 292.497L446.516 307.297L444.382 313.199L440.838 317.537Z" fill="white"/>
<path d="M291.072 420.006C292.733 425.478 294.779 430.825 297.193 436.007C304.126 434.554 310.947 432.605 317.602 430.176C317.813 430.105 313.786 424.829 313.363 424.395C311.723 422.579 309.768 421.075 307.594 419.956C305.469 419.028 302.852 419.734 300.546 419.855C297.405 420.017 294.247 420.067 291.072 420.006Z" fill="#FBBEBE"/>
<path d="M307.634 428.289C304.171 427.2 302.056 423.699 300.647 420.329C299.237 416.96 298.099 413.267 295.421 410.806C294.913 410.883 294.431 411.086 294.02 411.396C293.609 411.706 293.281 412.113 293.065 412.581C292.647 413.527 292.18 414.449 291.666 415.346C290.558 416.96 288.645 417.747 287.185 419.119C285.725 420.491 284.91 422.579 283.39 423.961C281.477 425.696 278.778 426.13 276.271 426.705C272.388 427.589 268.637 428.979 265.116 430.842C263.819 431.625 262.433 432.249 260.988 432.698C259.395 433.009 257.764 433.063 256.155 432.859L245.08 432.072C244.093 431.946 243.092 431.987 242.119 432.193C241 432.603 240.047 433.372 239.409 434.381C238.772 435.391 238.486 436.583 238.596 437.772C238.737 438.957 239.122 440.1 239.725 441.13C240.328 442.159 241.136 443.053 242.099 443.755C244.035 445.133 246.166 446.211 248.422 446.953C258.083 450.613 268.032 453.461 278.164 455.468V457.667C285.208 461.146 292.955 462.955 300.808 462.953C301.387 462.995 301.967 462.894 302.499 462.661C303.226 462.134 303.734 461.359 303.929 460.482C306.595 452.668 308.151 444.517 308.55 436.269C308.748 434.182 308.587 432.077 308.077 430.045C307.473 428.027 309.547 428.884 307.624 428.097" fill="#2F2E41"/>
<path d="M520.398 386.381C487.505 388.399 454.954 378.704 422.071 377.675C417.976 377.416 413.865 377.68 409.838 378.462C405.609 379.41 401.662 381.327 397.756 383.163C380.086 391.395 361.822 398.215 343.568 405.025L322.606 412.854C318.417 414.417 314.078 416.001 309.617 415.729C307.604 415.608 305.157 415.305 304.04 416.97C300.626 422.014 302.237 429.47 304.493 435.129C305.218 436.965 306.506 438.963 308.419 439.165C309.799 439.306 311.087 438.509 312.447 438.156C316.263 437.147 320.068 439.709 323.995 440.123C328.848 440.638 333.348 437.873 337.93 436.178C345.521 433.364 353.828 433.454 361.812 432.143C375.203 429.903 387.607 423.679 399.205 416.586C403.615 413.883 408.086 410.987 413.16 409.999C418.99 408.859 424.98 410.362 430.709 412.016C444.344 415.88 457.767 420.46 470.922 425.737C477.849 428.521 484.736 431.497 491.945 433.424C507.539 437.533 524.033 436.568 539.044 430.67C544.3 428.582 550.029 424.899 550.331 419.209C550.502 415.961 547.985 413.156 546.304 410.332C545.237 408.546 544.159 406.77 542.981 405.055C537.272 396.722 530.386 385.786 520.398 386.381Z" fill="#2F2E41"/>
<path opacity="0.1" d="M520.398 386.381C487.505 388.399 454.954 378.704 422.071 377.675C417.976 377.416 413.865 377.68 409.838 378.462C405.609 379.41 401.662 381.327 397.756 383.163C380.086 391.395 361.822 398.215 343.568 405.025L322.606 412.854C318.417 414.417 314.078 416.001 309.617 415.729C307.604 415.608 305.157 415.305 304.04 416.97C300.626 422.014 302.237 429.47 304.493 435.129C305.218 436.965 306.506 438.963 308.419 439.165C309.799 439.306 311.087 438.509 312.447 438.156C316.263 437.147 320.068 439.709 323.995 440.123C328.848 440.638 333.348 437.873 337.93 436.178C345.521 433.364 353.828 433.454 361.812 432.143C375.203 429.903 387.607 423.679 399.205 416.586C403.615 413.883 408.086 410.987 413.16 409.999C418.99 408.859 424.98 410.362 430.709 412.016C444.344 415.88 457.767 420.46 470.922 425.737C477.849 428.521 484.736 431.497 491.945 433.424C507.539 437.533 524.033 436.568 539.044 430.67C544.3 428.582 550.029 424.899 550.331 419.209C550.502 415.961 547.985 413.156 546.304 410.332C545.237 408.546 544.159 406.77 542.981 405.055C537.272 396.722 530.386 385.786 520.398 386.381Z" fill="black"/>
<path d="M354.22 421.61C359.362 423.366 364.557 424.983 369.806 426.463C372.736 421.641 378.223 418.281 379.472 412.773C379.524 412.651 379.55 412.519 379.548 412.387C379.546 412.254 379.516 412.124 379.46 412.003C379.404 411.883 379.323 411.776 379.222 411.69C379.122 411.603 379.004 411.539 378.877 411.502C375.127 409.42 370.963 408.197 366.685 407.92C363.302 407.708 361.761 411.239 360.221 413.731C359.607 414.73 355.6 422.085 354.22 421.61Z" fill="#FBBEBE"/>
<path d="M361.469 418.09C359.932 417.829 358.465 417.252 357.162 416.394C355.858 415.536 354.747 414.416 353.898 413.106C353.173 411.835 352.398 410.079 350.948 410.211C349.498 410.342 348.934 411.916 348.672 413.237C347.696 418.24 346.278 423.145 344.434 427.896C342.582 432.657 339.445 436.807 335.372 439.881C333.459 441.203 331.345 442.201 329.472 443.594C327.791 444.835 326.331 446.408 324.438 447.367C323.201 447.941 321.922 448.42 320.612 448.799C318.691 449.479 316.853 450.376 315.135 451.473C313.626 452.347 312.348 453.572 311.41 455.044C310.935 455.79 310.658 456.644 310.603 457.526C310.548 458.408 310.719 459.29 311.097 460.088C311.495 460.741 312.027 461.301 312.657 461.732C313.287 462.163 314.001 462.456 314.752 462.59C316.252 462.853 317.782 462.894 319.293 462.711C325.284 462.268 331.274 461.703 337.265 461.198C339.796 461.044 342.313 460.707 344.796 460.189C346.115 459.866 347.394 459.453 348.703 459.11C350.943 458.533 353.238 458.195 355.549 458.101C356.226 458.048 356.906 458.109 357.563 458.283C358.952 458.737 359.929 460.119 361.369 460.401C362.287 460.489 363.214 460.365 364.077 460.038C368.386 458.858 372.927 458.888 377.387 458.646C379.401 458.545 381.656 458.172 382.562 456.406C383.69 454.207 381.817 451.745 381.082 449.344C380.707 447.835 380.498 446.289 380.458 444.734C380.119 440.896 378.995 437.17 377.156 433.788C375.635 430.983 373.551 427.876 374.618 424.859C374.981 423.85 375.706 422.841 375.625 421.833C375.283 417 364.198 418.665 361.469 418.09Z" fill="#2F2E41"/>
<path d="M471.073 333.507C465.251 330.93 460.588 326.283 457.984 320.463C457.431 319.212 456.978 317.91 456.454 316.649C454.727 312.452 452.045 308.717 448.621 305.743C448.253 305.34 447.802 305.022 447.3 304.809C446.798 304.597 446.256 304.496 445.711 304.513C445.184 304.673 444.71 304.971 444.335 305.375C443.96 305.779 443.698 306.275 443.577 306.813C443.275 307.961 443.2 309.157 443.355 310.334C443.649 313.106 444.127 315.857 444.785 318.566L446.376 325.84C446.572 326.961 446.91 328.053 447.382 329.088C448.065 330.314 448.97 331.402 450.05 332.296C451.51 333.648 452.99 334.95 454.491 336.221C456.582 338.226 459.306 339.439 462.193 339.651C468.717 340.862 475.362 342.617 480.88 346.885C480.809 346.885 480.88 342.002 480.759 341.447C480.507 339.984 480.306 338.531 479.359 337.542C477.195 335.323 473.681 334.687 471.073 333.507Z" fill="#FBBEBE"/>
<path opacity="0.1" d="M471.073 333.507C465.251 330.93 460.588 326.283 457.984 320.463C457.431 319.212 456.978 317.91 456.454 316.649C454.727 312.452 452.045 308.717 448.621 305.743C448.253 305.34 447.802 305.022 447.3 304.809C446.798 304.597 446.256 304.496 445.711 304.513C445.184 304.673 444.71 304.971 444.335 305.375C443.96 305.779 443.698 306.275 443.577 306.813C443.275 307.961 443.2 309.157 443.355 310.334C443.649 313.106 444.127 315.857 444.785 318.566L446.376 325.84C446.572 326.961 446.91 328.053 447.382 329.088C448.065 330.314 448.97 331.402 450.05 332.296C451.51 333.648 452.99 334.95 454.491 336.221C456.582 338.226 459.306 339.439 462.193 339.651C468.717 340.862 475.362 342.617 480.88 346.885C480.809 346.885 480.88 342.002 480.759 341.447C480.507 339.984 480.306 338.531 479.359 337.542C477.195 335.323 473.681 334.687 471.073 333.507Z" fill="black"/>
<path d="M538.058 277.808C542.478 277.808 546.062 274.199 546.062 269.748C546.062 265.296 542.478 261.687 538.058 261.687C533.637 261.687 530.053 265.296 530.053 269.748C530.053 274.199 533.637 277.808 538.058 277.808Z" fill="#2F2E41"/>
<path d="M533.104 264.875C530.939 264.633 528.523 264.461 526.781 265.793C525.856 266.607 525.118 267.612 524.616 268.739C522.826 271.823 521.429 275.121 520.458 278.555C519.743 281.501 519.622 284.608 518.736 287.473C517.095 292.84 512.897 297.37 512.414 302.969C512.202 305.471 512.625 308.407 510.793 310.122C510.346 310.499 509.867 310.836 509.363 311.131C508.097 311.98 507.023 313.087 506.211 314.379C505.662 315.54 504.904 316.59 503.976 317.476C502.345 318.687 499.647 318.556 498.841 320.432C498.036 322.309 500.11 324.468 499.627 326.486C499.234 328.14 497.392 328.897 496.123 330.027C494.492 331.469 493.747 333.638 493.102 335.717C490.427 336.223 487.674 336.144 485.033 335.484C482.391 334.824 479.923 333.599 477.799 331.893C480.024 337.401 480.074 343.485 480.175 349.437C480.175 351.364 480.175 353.533 478.765 354.875C485.138 355.016 491.351 356.741 497.563 358.154C500.281 358.769 503.231 359.304 505.758 358.154C507.185 357.384 508.458 356.358 509.514 355.127C512.897 351.687 516.441 347.944 517.266 343.172C517.73 340.509 517.266 337.765 517.407 335.101C517.719 331.755 518.394 328.454 519.421 325.255C521.213 318.621 522.415 311.843 523.015 304.997C523.378 300.78 527.043 297.38 528.936 293.597C532.56 286.474 536.255 279.049 536.527 271.049C536.658 268.406 535.752 265.167 533.104 264.875Z" fill="#2F2E41"/>
<path opacity="0.1" d="M533.104 264.875C530.939 264.633 528.523 264.461 526.781 265.793C525.856 266.607 525.118 267.612 524.616 268.739C522.826 271.823 521.429 275.121 520.458 278.555C519.743 281.501 519.622 284.608 518.736 287.473C517.095 292.84 512.897 297.37 512.414 302.969C512.202 305.471 512.625 308.407 510.793 310.122C510.346 310.499 509.867 310.836 509.363 311.131C508.097 311.98 507.023 313.087 506.211 314.379C505.662 315.54 504.904 316.59 503.976 317.476C502.345 318.687 499.647 318.556 498.841 320.432C498.036 322.309 500.11 324.468 499.627 326.486C499.234 328.14 497.392 328.897 496.123 330.027C494.492 331.469 493.747 333.638 493.102 335.717C490.427 336.223 487.674 336.144 485.033 335.484C482.391 334.824 479.923 333.599 477.799 331.893C480.024 337.401 480.074 343.485 480.175 349.437C480.175 351.364 480.175 353.533 478.765 354.875C485.138 355.016 491.351 356.741 497.563 358.154C500.281 358.769 503.231 359.304 505.758 358.154C507.185 357.384 508.458 356.358 509.514 355.127C512.897 351.687 516.441 347.944 517.266 343.172C517.73 340.509 517.266 337.765 517.407 335.101C517.719 331.755 518.394 328.454 519.421 325.255C521.213 318.621 522.415 311.843 523.015 304.997C523.378 300.78 527.043 297.38 528.936 293.597C532.56 286.474 536.255 279.049 536.527 271.049C536.658 268.406 535.752 265.167 533.104 264.875Z" fill="black"/>
<path d="M525.583 393.323C518.737 390.054 513.723 383.97 508.185 378.755C497.613 368.807 484.676 361.766 473.56 352.434C466.19 346.259 459.605 339.056 451.511 333.881C444.386 329.343 436.314 326.512 427.92 325.608C426.959 325.437 425.971 325.485 425.031 325.749C423.97 326.22 423.045 326.952 422.343 327.878C418.756 331.934 415.567 336.326 412.818 340.993C398.722 364.954 378.706 385.131 362.124 407.396C361.6 407.926 361.29 408.631 361.253 409.375C361.216 410.12 361.454 410.852 361.923 411.432L365.295 418.05C367.178 421.762 370.209 426.12 374.276 425.344C376.139 425.001 377.619 423.629 378.988 422.317L394.091 407.82L409.969 392.606C419.272 383.698 428.726 374.578 434.797 363.188C439.529 371.42 447.946 376.808 453.715 384.374C455.91 387.239 457.743 390.427 459.656 393.454C462.797 398.316 466.371 402.887 469.936 407.447L488.149 430.741C490.626 433.909 493.183 437.157 496.576 439.306C500.896 442.04 506.141 442.767 511.216 443.221C518.058 443.832 524.927 444.082 531.795 443.967C537.031 443.876 542.428 443.533 547.129 441.203C551.831 438.872 555.688 434.141 555.446 428.814C555.158 426.077 554.26 423.439 552.818 421.096C546.354 409.091 537.846 399.154 525.583 393.323Z" fill="#2F2E41"/>
<path d="M542.981 281.531C546.379 281.531 549.133 278.753 549.133 275.327C549.133 271.9 546.379 269.122 542.981 269.122C539.584 269.122 536.829 271.9 536.829 275.327C536.829 278.753 539.584 281.531 542.981 281.531Z" fill="#E8E8F0"/>
<path d="M541.622 270.666C543.005 273.428 543.248 276.624 542.296 279.564C541.344 282.464 540.014 285.225 538.339 287.776C536.899 290.409 535.174 292.876 533.195 295.131C542.689 295.595 551.902 291.862 560.278 287.332C567.024 283.7 573.75 279.201 577.395 272.401C576.323 272.661 575.209 272.692 574.125 272.492C573.041 272.292 572.011 271.866 571.102 271.241C569.294 269.976 567.674 268.461 566.289 266.741L561.517 261.364C560.397 260.196 559.414 258.903 558.587 257.51C557.553 255.606 557.114 253.433 557.328 251.276C555.434 253.264 553.316 255.024 551.016 256.522C547.612 258.741 543.857 260.355 540.444 262.575C539.236 263.352 536.537 264.592 537.232 266.197C537.927 267.801 540.685 268.971 541.622 270.666Z" fill="#FBBEBE"/>
<path opacity="0.1" d="M541.622 270.666C543.005 273.428 543.248 276.624 542.296 279.564C541.344 282.464 540.014 285.225 538.339 287.776C536.899 290.409 535.174 292.876 533.195 295.131C542.689 295.595 551.902 291.862 560.278 287.332C567.024 283.7 573.75 279.201 577.395 272.401C576.323 272.661 575.209 272.692 574.125 272.492C573.041 272.292 572.011 271.866 571.102 271.241C569.294 269.976 567.674 268.461 566.289 266.741L561.517 261.364C560.397 260.196 559.414 258.903 558.587 257.51C557.553 255.606 557.114 253.433 557.328 251.276C555.434 253.264 553.316 255.024 551.016 256.522C547.612 258.741 543.857 260.355 540.444 262.575C539.236 263.352 536.537 264.592 537.232 266.197C537.927 267.801 540.685 268.971 541.622 270.666Z" fill="black"/>
<path d="M541.753 271.604C539.97 274.63 539.588 278.161 541.753 280.905C542.024 281.248 543.021 283.367 543.454 283.387C543.873 283.345 544.261 283.147 544.542 282.832C546.847 280.724 548.569 278.03 550.583 275.639C552.596 273.248 555.164 271.079 558.244 270.595C561.96 270.02 565.554 271.987 568.806 273.894C570.221 274.585 571.455 275.597 572.411 276.85C573.096 278.092 573.502 279.469 573.599 280.885C574.716 289.37 574.696 297.965 574.666 306.52C574.666 312.715 574.666 318.939 573.458 325.013C572.854 328.16 571.947 331.237 571.515 334.405C571.204 337.202 571.079 340.016 571.142 342.829V354.612C571.06 356.775 571.212 358.939 571.595 361.069C572.149 363.652 573.367 366.033 574.183 368.545C575.025 371.432 575.601 374.39 575.904 377.382L577.515 389.579C578.019 393.423 578.391 397.65 576.076 400.677C575.069 402.069 573.649 403.189 572.592 404.581C568.565 409.766 569.883 417.182 568.222 423.527C566.915 428.173 564.224 432.308 560.51 435.381C557.661 437.803 553.986 439.699 550.331 439.023C545.387 438.105 542.417 432.97 541.068 428.057C539.719 423.144 539.235 417.868 536.316 413.751C533.929 410.382 530.275 408.263 526.892 405.862C523.509 403.461 520.287 400.364 519.562 396.288C519.24 394.513 519.441 392.687 519.25 390.891C518.987 388.615 518.117 386.451 516.731 384.628C515.346 382.805 513.496 381.389 511.376 380.53C508.849 379.521 505.728 379.188 504.329 376.868C508.014 374.789 510.45 370.946 511.739 366.9C513.028 362.855 513.289 358.557 513.541 354.32L514.387 340.145C514.759 333.81 514.931 327.535 517.719 321.845C518.958 319.292 520.508 316.911 521.807 314.399C523.52 310.865 524.984 307.214 526.187 303.473C528.201 297.662 530.214 291.851 532.027 285.97C532.748 283.129 533.823 280.39 535.228 277.818C536.658 275.357 538.893 272.138 541.753 271.604Z" fill="#99FFCC"/>
<path d="M510.34 363.693L514.085 363.824L514.88 358.164C514.982 357.029 515.246 355.914 515.666 354.855C516.286 353.738 517.007 352.681 517.82 351.697C521.505 346.481 521.233 339.591 522.15 333.225C523.368 324.771 526.892 316.861 530.376 309.083L537.665 292.851C539.109 290.093 539.803 287.004 539.679 283.892C539.749 281.38 540.484 272.26 540.555 269.768C540.555 268.84 538.541 269.355 538.088 268.527C537.182 266.721 535.933 271.614 534.232 272.684C532.53 273.753 531.584 275.71 530.869 277.587C529.298 281.673 528.342 285.97 526.842 290.097C525.341 294.223 523.348 298.278 520.055 301.194C518.565 302.505 516.854 303.535 515.444 304.937C510.923 309.416 510.481 316.488 510.319 322.874C510.239 326.617 509.474 363.693 510.34 363.693Z" fill="#2F2E41"/>
<path d="M564.225 264.835C560.591 266.267 558.597 270.222 557.58 274.015C556.563 277.808 556.141 281.864 554.187 285.264C549.616 293.224 537.977 295.544 534.765 304.15C533.759 306.964 533.759 310.051 533.467 313.048C532.883 319.212 530.859 325.154 530.265 331.328C529.948 336.117 530.059 340.925 530.597 345.694L534.625 394.311C535.219 401.373 535.198 408.869 533.406 415.689C537.524 416.486 541.813 415.416 545.629 413.671C549.445 411.926 552.939 409.525 556.614 407.497C562.937 403.996 569.914 401.524 575.452 396.864C576.455 396.081 577.314 395.129 577.989 394.049C579.096 392.132 579.197 389.802 579.721 387.643C580.198 385.917 580.807 384.23 581.543 382.598C583.571 377.698 585.339 372.694 586.839 367.607C587.869 364.233 588.68 360.795 589.265 357.316C589.708 354.552 589.95 351.748 590.192 348.953C590.487 344.574 591.353 340.253 592.769 336.1C596.307 326.201 598.314 315.817 598.72 305.31C598.834 303.793 598.728 302.267 598.407 300.78C597.786 298.977 596.962 297.251 595.951 295.635C594.259 292.447 593.242 288.936 591.652 285.688C588.047 278.373 581.674 272.815 575.009 268.164C571.767 265.894 567.941 263.382 564.225 264.835Z" fill="#2F2E41"/>
<path d="M479.178 344.151C476.287 342.63 473.67 340.635 471.436 338.249C470.429 337.058 469.583 335.716 468.546 334.546C465.932 331.748 462.535 329.806 458.8 328.977C455.095 328.162 451.306 327.793 447.513 327.878C444.975 327.716 442.429 328.023 440.002 328.786C438.788 329.183 437.695 329.884 436.825 330.821C435.955 331.758 435.337 332.901 435.029 334.143C434.475 337.169 436.448 340.105 438.814 342.052C441.018 343.853 443.61 345.114 446.386 345.734C448.648 346.127 450.93 346.393 453.222 346.531C466.693 347.944 478.715 355.288 490.475 361.977C500.845 367.862 511.414 373.357 522.18 378.462C522.604 375.228 522.783 371.967 522.714 368.706C522.653 366.275 522.532 362.562 520.237 361.13C517.569 359.465 513.189 359.112 510.168 358.103C503.229 355.823 496.451 353.076 489.881 349.881C486.249 348.098 482.682 346.188 479.178 344.151Z" fill="#FBBEBE"/>
<path d="M561.903 250.391C565.292 237.474 557.646 224.265 544.825 220.888C532.004 217.51 518.864 225.243 515.475 238.16C512.085 251.076 519.731 264.285 532.552 267.663C545.373 271.04 558.514 263.307 561.903 250.391Z" fill="#FBBEBE"/>
<path d="M571.092 292.255C568.947 294.757 567.87 297.985 566.43 300.951C563.47 307.065 558.819 312.311 556.493 318.707C554.036 325.446 554.117 333.457 549.304 338.753C548.468 339.671 547.461 340.559 547.22 341.78C547.187 342.521 547.103 343.259 546.968 343.989C546.283 345.906 543.142 346.007 542.558 347.964C542.387 348.539 542.478 349.164 542.266 349.729C541.783 350.991 540.122 351.182 539.004 351.949C536.668 353.533 537.141 357.205 535.48 359.495C534.751 360.352 533.806 360.998 532.744 361.367C531.682 361.736 530.541 361.814 529.439 361.594C527.257 361.145 525.158 360.359 523.217 359.263C522.528 358.879 521.767 358.642 520.982 358.567C520.052 358.597 519.151 358.902 518.394 359.445C513.964 362.269 511.88 367.869 511.91 373.155C511.94 378.441 513.753 383.526 515.605 388.469C515.862 389.303 516.279 390.078 516.834 390.75C518.304 392.303 520.861 392.061 522.814 391.193C524.767 390.326 526.54 388.964 528.634 388.58C532.349 387.905 535.984 390.467 539.709 390.255C542.468 390.094 544.914 388.49 547.2 386.936C550.865 384.454 554.59 381.892 557.268 378.381C558.919 376.222 560.127 373.77 561.567 371.46C563.41 368.645 565.427 365.95 567.608 363.389L581.442 346.42C582.831 344.814 584.077 343.089 585.167 341.265C586.426 338.802 587.399 336.202 588.067 333.517C589.386 328.987 590.715 324.437 590.936 319.706C591.013 315.824 590.676 311.945 589.93 308.134C589.452 304.337 588.435 300.627 586.909 297.118C584.06 290.822 576.74 285.647 571.092 292.255Z" fill="#2F2E41"/>
<path d="M612.936 281.46C614.044 277.319 614.154 272.974 613.258 268.782C612.362 264.59 610.484 260.671 607.781 257.349C611.456 241.641 603.452 225.913 589.356 220.092C589.859 205.362 580.546 191.844 566.199 188.05C551.288 184.126 535.994 192.015 529.56 206.038C520.499 201.327 510.914 201.831 507.752 207.37C504.45 213.161 509.414 222.271 518.827 227.709C521.795 229.446 525.042 230.651 528.423 231.27C529.874 235.385 532.17 239.15 535.161 242.322C538.152 245.495 541.773 248.005 545.79 249.691C545.542 255.647 546.956 261.553 549.873 266.748C552.79 271.943 557.094 276.22 562.302 279.1C562.871 283.239 564.399 287.188 566.763 290.631C566.486 291.353 566.25 292.091 566.058 292.84C563.098 304.089 569.501 315.529 580.345 318.384C591.188 321.24 602.384 314.44 605.334 303.191C606.127 300.192 606.265 297.057 605.737 294C609.217 290.544 611.704 286.212 612.936 281.46Z" fill="#3F3D56"/>
<path opacity="0.1" d="M513.964 210.296C517.126 204.757 526.701 204.243 535.772 208.964C542.186 194.941 557.5 187.042 572.411 190.976C573.085 191.148 573.75 191.359 574.424 191.581C571.874 190.005 569.106 188.816 566.209 188.05C551.297 184.126 536.004 192.015 529.57 206.038C520.509 201.327 510.923 201.831 507.762 207.37C504.46 213.161 509.423 222.271 518.837 227.709C520.604 228.727 522.465 229.572 524.395 230.231C515.394 224.722 510.742 215.945 513.964 210.296Z" fill="black"/>
<path opacity="0.1" d="M572.28 295.766C572.472 295.017 572.708 294.279 572.985 293.557C570.621 290.111 569.094 286.159 568.525 282.016C563.316 279.139 559.012 274.864 556.095 269.67C553.178 264.477 551.764 258.572 552.012 252.618C547.995 250.931 544.374 248.421 541.383 245.249C538.392 242.076 536.096 238.311 534.645 234.196C532.673 233.844 530.746 233.279 528.896 232.511C530.433 236.35 532.718 239.843 535.617 242.787C538.516 245.732 541.971 248.069 545.78 249.662C545.532 255.617 546.946 261.524 549.863 266.719C552.78 271.913 557.084 276.191 562.292 279.07C562.861 283.21 564.389 287.158 566.752 290.601C566.475 291.323 566.24 292.061 566.048 292.811C563.098 304.019 569.451 315.419 580.234 318.324C576.777 315.82 574.164 312.32 572.743 308.29C571.321 304.259 571.16 299.891 572.28 295.766Z" fill="black"/>
<path d="M549.041 252.598C550.666 251.361 550.645 248.592 548.993 246.414C547.342 244.235 544.686 243.472 543.06 244.709C541.435 245.946 541.457 248.715 543.108 250.893C544.76 253.072 547.416 253.835 549.041 252.598Z" fill="#FBBEBE"/>
<path d="M253.879 39.6881C262.937 39.6881 270.28 32.3302 270.28 23.2538C270.28 14.1774 262.937 6.81958 253.879 6.81958C244.821 6.81958 237.478 14.1774 237.478 23.2538C237.478 32.3302 244.821 39.6881 253.879 39.6881Z" fill="#3F3D56"/>
<path d="M289.471 119.448C314.877 119.448 335.473 92.709 335.473 59.7242C335.473 26.7394 314.877 0 289.471 0C264.065 0 243.469 26.7394 243.469 59.7242C243.469 92.709 264.065 119.448 289.471 119.448Z" fill="#3F3D56"/>
<path opacity="0.1" d="M289.471 101.41C266.424 101.41 247.335 79.407 243.982 50.7051C243.633 53.6988 243.458 56.7102 243.458 59.7242C243.458 92.7037 264.058 119.448 289.471 119.448C314.883 119.448 335.473 92.7037 335.473 59.7242C335.473 56.7102 335.298 53.6988 334.949 50.7051C331.606 79.4474 312.517 101.41 289.471 101.41Z" fill="black"/>
<path d="M387.496 234.64C386.489 238.675 382.25 241.964 377.538 244.234C367.611 249.026 355.388 250.449 343.517 250.933C340.497 251.117 337.467 251.059 334.456 250.761C328.244 250.025 322.485 247.372 318.89 243.588C318.378 243.175 318.022 242.598 317.884 241.954C317.909 241.567 318.011 241.19 318.184 240.843C318.356 240.497 318.597 240.188 318.89 239.936C325.223 233.016 335.775 228.758 346.367 225.732C354.421 223.401 368.457 217.368 377.246 218.185C385.784 218.922 388.744 229.495 387.496 234.64Z" fill="#3F3D56"/>
<path opacity="0.1" d="M387.496 234.64C386.489 238.675 382.25 241.964 377.538 244.234C367.611 249.026 355.388 250.449 343.517 250.933C340.497 251.117 337.467 251.059 334.456 250.761C328.244 250.025 322.485 247.372 318.89 243.588C318.378 243.175 318.022 242.598 317.884 241.954C317.909 241.567 318.011 241.19 318.184 240.843C318.356 240.497 318.597 240.188 318.89 239.936C325.223 233.016 335.775 228.758 346.367 225.732C354.421 223.401 368.457 217.368 377.246 218.185C385.784 218.922 388.744 229.495 387.496 234.64Z" fill="black"/>
<path d="M261.38 204.233C258.361 210.168 257.814 217.062 259.86 223.401C261.945 229.705 265.853 235.245 271.086 239.321C283.943 249.661 301.583 251.084 318.024 250.953C332.441 250.823 346.838 249.832 361.137 247.987C365.899 247.371 370.712 246.645 375.122 244.738C380.488 242.408 385.19 238.14 387.113 232.632C389.036 227.124 387.677 220.304 383.086 216.611C379.059 213.363 373.591 212.919 368.467 212.576L339.118 210.81C342.017 207.865 345.873 206.2 349.407 204.071C354.089 201.226 357.2 196.464 360.613 192.177C365.648 185.761 371.689 180.151 377.73 174.572C378.736 180.061 382.15 184.57 386.227 188.363C390.305 192.157 395.007 195.203 399.256 198.805C409.525 207.542 416.915 219.406 427.719 227.477C435.151 225.519 442.099 222.043 448.127 217.267L443.929 209.65C443.584 208.852 443.04 208.157 442.348 207.633C441.15 206.906 439.62 207.279 438.24 207.078C434.555 206.523 432.944 202.255 431.494 198.815C427.528 189.352 419.916 182.018 413.371 174.088C408.598 168.242 404.369 161.971 400.736 155.354C398.551 151.409 396.557 147.283 393.587 143.883C390.617 140.483 386.479 137.83 381.968 137.83C377.941 137.83 374.316 139.848 370.893 141.865C360.465 148.073 350.431 154.923 340.849 162.375C335.815 166.269 330.851 170.396 324.972 172.787C322.495 173.796 319.937 174.482 317.511 175.702C313.353 177.851 310.191 181.483 306.788 184.701C294.666 196.192 278.063 203.637 261.38 204.233Z" fill="#605D82"/>
<path d="M322.757 122.414C322.626 125.931 321.88 129.397 320.552 132.654C319.879 134.273 318.882 135.735 317.621 136.95C316.359 138.165 314.862 139.107 313.222 139.716C310.888 140.343 308.442 140.423 306.073 139.948C304.003 139.725 302.01 139.035 300.244 137.931C297.495 136.034 296.126 132.654 295.622 129.345C295.119 126.036 295.35 122.657 295.028 119.327C294.715 116.637 294.203 113.973 293.498 111.357C293.286 110.49 293.065 109.622 292.843 108.755C292.622 107.887 292.431 107.019 292.239 106.152C292.048 105.284 291.897 104.527 291.756 103.7C291.615 102.873 291.535 102.308 291.464 101.612C291.4 99.5317 291.061 97.4692 290.457 95.478C289.884 94.189 289.164 92.9703 288.313 91.8461C287.95 91.3215 287.598 90.8373 287.306 90.2622C286.369 88.8567 285.932 87.1753 286.067 85.4903C286.106 85.2291 286.17 84.9723 286.259 84.7236C286.29 84.6271 286.327 84.5328 286.369 84.4411C286.729 84.3424 287.058 84.1576 287.33 83.9028C287.602 83.6479 287.808 83.3306 287.93 82.9783C288.068 82.218 288.002 81.4347 287.739 80.7083C287.443 79.6939 287.034 78.7159 286.521 77.7928C286.188 77.1874 285.051 76.0878 285.041 75.3917C285.041 73.9894 287.759 72.8594 288.866 72.3046C292.25 70.6042 296.024 69.8381 299.801 70.0851C302.217 70.2465 304.835 70.9931 306.174 73.031C307.382 74.857 307.181 77.2278 307.735 79.3565C307.781 79.6673 307.909 79.9599 308.107 80.2039C308.37 80.4434 308.701 80.5951 309.054 80.6377C309.643 80.7569 310.248 80.7808 310.846 80.7083C311.005 80.6997 311.164 80.676 311.319 80.6377C312.25 80.4652 313.131 80.086 313.896 79.528C314.4 79.3867 314.903 79.2859 315.397 79.1951H315.457C317.471 85.5307 317.722 92.3102 319.363 98.787C320.179 101.995 321.377 105.163 321.508 108.472C321.508 108.613 321.508 108.765 321.508 108.906C321.508 109.975 321.448 111.045 321.508 112.104C321.526 112.578 321.58 113.05 321.669 113.516C321.851 114.268 322.073 115.008 322.334 115.736C322.404 115.968 322.475 116.2 322.535 116.442C322.585 116.611 322.625 116.783 322.656 116.957C322.951 118.762 322.985 120.6 322.757 122.414Z" fill="#FBBEBE"/>
<path d="M294.686 80.9704C307.72 80.9704 318.286 70.3831 318.286 57.3229C318.286 44.2627 307.72 33.6753 294.686 33.6753C281.652 33.6753 271.086 44.2627 271.086 57.3229C271.086 70.3831 281.652 80.9704 294.686 80.9704Z" fill="#FBBEBE"/>
<path d="M444.533 186.174C443.845 179.729 441.557 173.558 437.878 168.227L439.72 179.173C438.956 179.392 438.144 179.384 437.385 179.149C436.625 178.915 435.95 178.464 435.441 177.851C434.446 176.607 433.685 175.192 433.196 173.674C430.514 167.006 427.007 160.701 422.755 154.91C407.733 153.649 392.872 147.414 379.663 140.13C366.453 132.846 354.079 124.14 341.031 116.563C338.768 115.196 336.413 113.989 333.983 112.951C329.905 111.317 325.324 110.47 321.458 108.543L320.682 108.129C319.806 107.658 318.977 107.104 318.206 106.475C317.791 106.132 317.398 105.765 317.028 105.375C315.097 103.127 313.564 100.565 312.497 97.7984C310.423 93.198 309.678 87.6392 307.614 83.0388C308.566 82.1505 309.633 81.3939 310.785 80.7891L311.289 80.5369C312.109 80.1531 312.961 79.8425 313.836 79.6087C314.339 79.4675 314.843 79.3666 315.336 79.2758H315.397C317.736 78.8979 320.133 79.0881 322.384 79.8307C325.666 80.9505 328.425 83.17 331.204 85.2785C335.584 88.5976 340.134 91.7251 344.111 95.5284C346.387 97.7177 348.471 100.119 350.918 102.106C352.958 103.684 355.108 105.114 357.351 106.384L397.161 130.142C401.652 132.816 406.152 135.499 410.542 138.344C417.218 142.652 423.631 147.323 430.075 151.994L441.442 160.246C442.687 161.055 443.778 162.08 444.664 163.273C445.443 164.611 445.927 166.1 446.083 167.641C447.028 173.855 446.497 180.205 444.533 186.174Z" fill="#FBBEBE"/>
<path d="M328.616 140.2C327.015 147.353 319.806 151.681 316.031 157.966C311.339 165.765 313.252 174.834 315.024 183.773L305.368 192.106C303.596 193.629 301.814 195.133 299.911 196.515C297.12 198.395 294.204 200.08 291.182 201.559L282.644 205.958C279.995 207.449 277.189 208.64 274.277 209.509C268.659 210.951 262.699 209.943 257.161 208.278C256.506 208.107 255.876 207.849 255.289 207.511C254.943 207.303 254.642 207.029 254.403 206.704C253.851 205.721 253.652 204.578 253.839 203.466C254.403 194.104 256.688 184.933 258.964 175.833C260.159 170.368 261.778 165.005 263.806 159.792C265.804 155.33 268.102 151.009 270.683 146.859C273.704 141.744 276.724 136.589 280.751 132.2C282.473 130.304 284.396 128.508 285.423 126.147C286.843 122.899 286.289 119.176 286.581 115.645C286.799 112.987 287.502 110.391 288.655 107.988C289.272 106.694 290.014 105.464 290.87 104.315C291.263 105.223 291.645 106.131 292.038 107.029L292.793 108.805C293.125 109.561 293.448 110.328 293.8 111.085C294.74 113.25 295.673 115.42 296.599 117.592C297.598 120.328 299.029 122.886 300.838 125.168C302.761 127.348 305.59 128.931 308.469 128.619C309.822 128.393 311.107 127.868 312.232 127.083C313.357 126.298 314.293 125.272 314.974 124.079C316.323 121.69 317.297 119.107 317.863 116.422C318.657 113.154 318.766 109.757 318.185 106.444C317.179 100.058 314.51 93.5408 312.547 87.6088C311.746 85.6323 311.283 83.5348 311.178 81.4043C311.176 81.1637 311.2 80.9237 311.248 80.688V80.5064C312.069 80.1227 312.921 79.8121 313.796 79.5783C314.299 79.437 314.802 79.3362 315.296 79.2454C317.028 88.6613 318.763 98.0571 320.501 107.433C320.501 107.655 320.592 107.877 320.632 108.099C320.874 109.45 321.125 110.792 321.407 112.134C321.689 113.476 321.931 114.565 322.233 115.766C322.334 116.169 322.444 116.583 322.555 116.987C322.867 118.096 323.21 119.186 323.562 120.276C326.019 126.863 330.116 133.431 328.616 140.2Z" fill="#99FFCC"/>
<path d="M424.406 240.753C424.319 242.142 424.586 243.531 425.182 244.789C426.652 247.492 430.216 248.108 433.236 248.36C451.152 249.84 469.178 249.291 486.971 246.726C487.938 246.655 488.875 246.361 489.71 245.868C492.237 244.092 490.716 239.764 487.917 238.372C485.118 236.98 481.876 237.363 478.856 236.728C475.843 235.964 472.974 234.717 470.358 233.035C464.217 229.498 458.176 225.799 452.235 221.938C448.681 219.648 444.483 217.206 440.486 218.568C429.622 222.241 424.326 229.04 424.406 240.753Z" fill="#2F2E41"/>
<path d="M292.33 105.678L292.239 106.172L292.088 107C291.595 109.542 290.981 112.044 290.286 114.596C288.363 121.547 285.796 128.397 283.238 135.136L262.689 189.413C260.957 193.973 259.235 198.493 257.272 202.992C256.618 204.475 255.943 206.019 255.258 207.492C252.852 212.909 250.536 218.508 249.771 224.289C249.268 228.113 248.764 232.017 249.52 235.8C250.275 239.583 252.54 243.286 256.175 244.678C257.927 245.364 260.434 246.282 259.95 248.108C259.699 249.117 258.561 249.601 257.534 249.763C256.187 249.98 254.809 249.897 253.499 249.518C252.188 249.14 250.977 248.476 249.952 247.573C248.039 245.878 246.559 243.225 244.012 242.943C242.25 242.751 240.629 243.81 238.978 244.547C232.383 247.573 224.711 245.455 217.784 243.306C218.328 240.501 221.147 238.645 223.936 238.09C226.725 237.535 229.625 237.919 232.484 237.848C233.399 237.896 234.306 237.66 235.082 237.172C235.783 236.544 236.283 235.723 236.521 234.811C238.356 229.356 239.72 223.753 240.599 218.064C241.525 212.112 241.908 206.079 243.217 200.208C244.224 195.627 245.814 191.188 247.164 186.689C249.783 177.429 251.93 168.041 253.597 158.562C254.442 154.628 255.047 150.645 255.409 146.637C255.641 143.308 255.53 139.959 255.852 136.65C256.387 132.338 257.283 128.079 258.531 123.918C259.759 119.368 260.977 114.838 262.206 110.298C264.018 103.579 265.961 96.6083 270.552 91.3925C272.146 89.5542 274.1 88.0637 276.293 87.0137C278.485 85.9638 280.87 85.3767 283.299 85.2889C284.21 85.2848 285.118 85.3829 286.007 85.5815L286.45 85.6925C287.422 85.9434 288.355 86.3306 289.219 86.8426C290.639 85.9346 291.353 86.2574 292.3 87.6396C293.121 89.1156 293.509 90.7946 293.417 92.4821C293.49 96.9059 293.126 101.326 292.33 105.678Z" fill="#FBBEBE"/>
<path d="M293.881 111.035L293.82 111.095L293.498 111.418L290.286 114.636L288.706 107.998L283.299 85.2586C284.21 85.2544 285.118 85.3526 286.007 85.5512C286.046 85.2899 286.11 85.0331 286.199 84.7844L286.45 85.6621L288.283 91.907L291.756 103.761L292.33 105.718L293.881 111.035Z" fill="#99FFCC"/>
<path d="M311.913 22.4468H284.869C278.197 22.4468 272.787 27.8669 272.787 34.553V42.412C272.787 49.0981 278.197 54.5183 284.869 54.5183H311.913C318.586 54.5183 323.995 49.0981 323.995 42.412V34.553C323.995 27.8669 318.586 22.4468 311.913 22.4468Z" fill="#3F3D56"/>
<path d="M326.985 39.6881C336.043 39.6881 343.387 32.3302 343.387 23.2538C343.387 14.1774 336.043 6.81958 326.985 6.81958C317.927 6.81958 310.584 14.1774 310.584 23.2538C310.584 32.3302 317.927 39.6881 326.985 39.6881Z" fill="#3F3D56"/>
<path opacity="0.1" d="M326.593 6.80981H325.989C330.213 6.99157 334.204 8.80089 337.128 11.8602C340.053 14.9195 341.686 18.9924 341.686 23.2289C341.686 27.4655 340.053 31.5384 337.128 34.5977C334.204 37.657 330.213 39.4663 325.989 39.648H326.593C330.942 39.648 335.114 37.9166 338.19 34.8346C341.266 31.7525 342.994 27.5724 342.994 23.2138C342.994 18.8552 341.266 14.675 338.19 11.593C335.114 8.511 330.942 6.77954 326.593 6.77954V6.80981Z" fill="black"/>
<path opacity="0.1" d="M253.879 6.80981H254.483C250.259 6.99157 246.268 8.80089 243.343 11.8602C240.418 14.9195 238.786 18.9924 238.786 23.2289C238.786 27.4655 240.418 31.5384 243.343 34.5977C246.268 37.657 250.259 39.4663 254.483 39.648H253.879C251.725 39.648 249.593 39.223 247.603 38.3971C245.613 37.5712 243.805 36.3606 242.282 34.8346C240.759 33.3085 239.55 31.4968 238.726 29.5029C237.902 27.509 237.478 25.372 237.478 23.2138C237.478 21.0556 237.902 18.9186 238.726 16.9247C239.55 14.9308 240.759 13.1191 242.282 11.593C243.805 10.067 245.613 8.85643 247.603 8.03053C249.593 7.20463 251.725 6.77954 253.879 6.77954V6.80981Z" fill="black"/>
<path opacity="0.1" d="M324.499 51.3005H282.936C281.664 51.3005 280.444 50.7948 279.544 49.8945C278.644 48.9943 278.136 47.7728 278.134 46.4983V49.6964C278.136 50.9718 278.643 52.1943 279.543 53.0962C280.443 53.9981 281.663 54.5059 282.936 54.5086H324.539C325.812 54.5059 327.032 53.9981 327.932 53.0962C328.832 52.1943 329.339 50.9718 329.341 49.6964V46.4983C329.339 47.1324 329.211 47.7598 328.966 48.3445C328.721 48.9293 328.364 49.4598 327.914 49.9059C327.464 50.3519 326.931 50.7047 326.345 50.944C325.759 51.1833 325.131 51.3044 324.499 51.3005Z" fill="black"/>
<path d="M465.495 219.527C465.495 219.527 468.093 219.981 468.516 217.872C468.727 216.864 468.012 210.387 467.197 203.91C466.804 200.722 466.381 197.544 466.039 195.002C465.626 191.884 465.324 189.735 465.324 189.735L464.851 188.162L462.052 178.739L459.414 169.861L457.471 166.37L443.486 173.19L434.787 188.252L437.485 189.957L437.958 190.26L442.922 195.466L456.836 210.094L463.099 216.682L463.834 217.449L465.495 219.527Z" fill="#FFE09C"/>
<path d="M454.501 160.378C454.501 160.378 439.177 167.581 435.492 175.41C435.492 175.41 432.048 181.997 431.615 185.498C431.615 185.498 430.609 188.696 436.962 189.483C436.962 189.483 439.851 177.73 448.52 172.625L457.199 167.53L454.501 160.378Z" fill="#E7C4C3"/>
<path d="M458.494 178.461C459.241 175.666 457.932 172.887 455.569 172.252C453.207 171.618 450.686 173.369 449.938 176.163C449.191 178.957 450.5 181.737 452.863 182.371C455.225 183.006 457.746 181.255 458.494 178.461Z" fill="#FF7F8E"/>
<path d="M456.831 196.726C457.571 193.942 456.263 191.177 453.91 190.548C451.557 189.92 449.049 191.667 448.309 194.451C447.569 197.234 448.876 200 451.23 200.628C453.583 201.257 456.091 199.509 456.831 196.726Z" fill="#FF7F8E"/>
<path d="M442.922 195.466C443.725 195.139 444.439 194.626 445.004 193.968C445.57 193.31 445.971 192.527 446.174 191.683C446.919 188.898 445.61 186.124 443.254 185.498C440.898 184.873 438.391 186.618 437.656 189.403C437.598 189.591 437.555 189.783 437.525 189.978L437.999 190.28L442.922 195.466Z" fill="#FF7F8E"/>
<path d="M461.639 188.737C462.191 188.877 462.766 188.898 463.327 188.799C463.887 188.699 464.42 188.482 464.891 188.162L462.092 178.739C461.258 179.049 460.514 179.56 459.924 180.227C459.334 180.894 458.917 181.696 458.709 182.563C457.974 185.377 459.283 188.111 461.639 188.737Z" fill="#FF7F8E"/>
<path d="M463.26 205.039C463.964 205.206 464.699 205.189 465.395 204.992C466.091 204.794 466.725 204.421 467.237 203.909C466.845 200.721 466.422 197.544 466.079 195.001H465.949C463.593 194.366 461.086 196.121 460.341 198.905C459.596 201.69 460.914 204.414 463.26 205.039Z" fill="#FF7F8E"/>
<path d="M463.099 216.652C463.388 216.163 463.608 215.637 463.753 215.088C464.498 212.303 463.189 209.539 460.833 208.914C460.12 208.74 459.374 208.755 458.669 208.957C457.963 209.159 457.321 209.54 456.806 210.064L463.099 216.652Z" fill="#FF7F8E"/>
<path d="M456.182 174.461L457.793 174.895C457.16 176.063 456.786 177.353 456.695 178.678C456.691 178.766 456.691 178.853 456.695 178.941C456.907 180.605 455.084 178.507 455.084 178.507C455.084 178.507 455.397 175.087 456.182 174.461Z" fill="#94CC79"/>
<path d="M448.842 184.873L450.463 185.306C449.825 186.468 449.45 187.756 449.366 189.08C449.361 189.167 449.361 189.254 449.366 189.342C449.577 191.006 447.755 188.908 447.755 188.908C447.755 188.908 448.057 185.488 448.842 184.873Z" fill="#94CC79"/>
<path d="M453.856 188.313L455.467 188.737C454.834 189.904 454.46 191.195 454.37 192.52C454.365 192.607 454.365 192.695 454.37 192.782C454.591 194.447 452.759 192.349 452.759 192.349C452.759 192.349 453.091 188.929 453.856 188.313Z" fill="#94CC79"/>
<path d="M460.3 196.999L461.921 197.423C461.283 198.588 460.909 199.88 460.824 201.206C460.819 201.293 460.819 201.381 460.824 201.468C461.035 203.133 459.213 201.034 459.213 201.034C459.213 201.034 459.525 197.614 460.3 196.999Z" fill="#94CC79"/>
<path d="M464.317 211.295L465.928 211.728C465.296 212.893 464.922 214.18 464.831 215.502C464.825 215.589 464.825 215.677 464.831 215.764C465.052 217.429 463.22 215.34 463.22 215.34C463.22 215.34 463.532 211.91 464.317 211.295Z" fill="#94CC79"/>
<path d="M455.578 201.297L457.189 201.73C456.552 202.91 456.185 204.215 456.112 205.554C456.106 205.641 456.106 205.729 456.112 205.816C456.323 207.481 454.501 205.393 454.501 205.393C454.501 205.393 454.803 201.912 455.578 201.297Z" fill="#94CC79"/>
<path d="M459.484 161.71C459.484 161.71 457.179 156.474 454.45 160.378C454.68 163.548 455.72 166.605 457.471 169.256C457.471 169.256 465.817 192.005 465.123 195.486C465.123 195.486 468.415 217.459 467.599 218.69C467.599 218.69 468.506 220.243 469.15 214.402C469.794 208.561 466.965 191.4 466.965 191.4L462.827 173.564L460.058 167.511L459.484 161.71Z" fill="#E7C4C3"/>
<path opacity="0.2" d="M459.484 161.71C459.484 161.71 457.179 156.474 454.45 160.378C454.68 163.548 455.72 166.605 457.471 169.256C457.471 169.256 465.817 192.005 465.123 195.486C465.123 195.486 468.415 217.459 467.599 218.69C467.599 218.69 468.506 220.243 469.15 214.402C469.794 208.561 466.965 191.4 466.965 191.4L462.827 173.564L460.058 167.511L459.484 161.71Z" fill="white"/>
<path d="M431.796 170.385C431.796 170.385 435.934 182.33 439.72 179.152L436.7 163.545L431.796 170.385Z" fill="#FBBEBE"/>
<path d="M148.776 219.446C148.776 219.446 185.274 281.057 193.802 289.289C193.802 289.289 230.269 327.222 211.733 324.599C210.374 324.407 183.683 301.799 182.122 298.086C180.562 294.374 130.099 228.687 130.099 228.687L137.298 222.049L148.776 219.446Z" fill="#A0616A"/>
<path opacity="0.1" d="M148.776 219.446C148.776 219.446 185.274 281.057 193.802 289.289C193.802 289.289 230.269 327.222 211.733 324.599C210.374 324.407 183.683 301.799 182.122 298.086C180.562 294.374 130.099 228.687 130.099 228.687L137.298 222.049L148.776 219.446Z" fill="black"/>
<path d="M182.152 420.662C182.152 420.662 170.473 435.291 175.346 441.142C180.219 446.993 204.494 458.181 212.327 457.717C220.603 457.233 248.341 458.726 249.318 446.015C249.318 446.015 251.261 440.163 225.96 439.185C200.658 438.206 208.431 411.875 208.431 411.875L182.152 420.662Z" fill="#2F2E41"/>
<path d="M42.9678 296.795C42.9678 296.795 31.2885 336.776 66.3263 343.606L104.284 341.659C104.284 341.659 157.817 330.925 172.426 338.733C172.426 338.733 178.266 339.742 176.313 347.51C174.36 355.278 179.233 407.981 179.233 407.981V425.535C179.233 425.535 212.327 425.535 216.224 421.631C216.224 421.631 213.304 406.024 216.224 393.383C219.143 380.742 211.361 340.71 211.361 340.71L210.585 316.69C210.526 313.713 209.677 310.806 208.125 308.267C206.573 305.728 204.375 303.648 201.755 302.243C199.915 301.266 197.868 300.744 195.785 300.719C195.785 300.719 129.596 289.995 106.237 291.942C82.8787 293.889 42.9678 296.795 42.9678 296.795Z" fill="#605D82"/>
<path d="M108.18 169.024C108.18 169.024 125.699 189.503 127.643 196.333C129.586 203.163 151.041 220.687 151.041 220.687C151.041 220.687 135.466 232.39 138.385 238.241C141.305 244.093 117.947 218.74 117.947 218.74L90.6313 178.779L108.18 169.024Z" fill="#99FFCC"/>
<path opacity="0.1" d="M108.18 169.024C108.18 169.024 125.699 189.503 127.643 196.333C129.586 203.163 151.041 220.687 151.041 220.687C151.041 220.687 135.466 232.39 138.385 238.241C141.305 244.093 117.947 218.74 117.947 218.74L90.6313 178.779L108.18 169.024Z" fill="black"/>
<path d="M119.829 145.618C119.829 145.618 111.07 173.866 111.07 184.63C111.07 195.395 74.079 181.705 75.0556 175.853C76.0323 170.002 96.471 148.544 97.4476 139.767C98.4242 130.99 119.829 145.618 119.829 145.618Z" fill="#A0616A"/>
<path opacity="0.1" d="M90.6314 165.119C90.6314 165.119 56.5602 156.342 51.6972 206.089C46.8342 255.836 55.5836 261.677 40.9845 291.912C26.3854 322.148 140.268 295.816 140.268 295.816C140.268 295.816 134.429 288.987 115.933 291.912L107.174 265.581C107.174 265.581 104.254 253.878 120.806 253.878C137.358 253.878 129.566 219.739 129.566 219.739C129.566 219.739 120.806 190.482 115.933 187.556C111.06 184.631 102.341 167.077 90.6314 165.119Z" fill="black"/>
<path d="M90.6314 163.183C90.6314 163.183 56.5602 154.405 51.6972 204.142C46.8342 253.879 55.5836 259.74 40.9845 289.975C26.3854 320.211 140.268 293.88 140.268 293.88C140.268 293.88 134.429 287.05 115.933 289.975L107.174 263.644C107.174 263.644 104.284 251.962 120.836 251.962C137.389 251.962 129.596 217.822 129.596 217.822C129.596 217.822 120.836 188.565 115.963 185.64C111.09 182.714 102.341 165.12 90.6314 163.183Z" fill="#99FFCC"/>
<path d="M111.1 163.172C128.839 163.172 143.218 148.764 143.218 130.99C143.218 113.216 128.839 98.8074 111.1 98.8074C93.3621 98.8074 78.9824 113.216 78.9824 130.99C78.9824 148.764 93.3621 163.172 111.1 163.172Z" fill="#A0616A"/>
<path d="M104.898 295.777L185.616 344.121L260.715 274.005L171.188 242.761L106.761 286.707L104.898 295.777Z" fill="#DADAE5"/>
<path d="M200.154 160.448L175.034 235.305L258.319 259.306L293.87 158.077L200.154 160.448Z" fill="#DADAE5"/>
<path opacity="0.03" d="M193.449 154.92L200.265 161.165L293.981 158.794L296.136 152.66L193.449 154.92Z" fill="black"/>
<path opacity="0.03" d="M168.711 230.998L193.449 154.92L200.265 161.165L175.779 234.145L168.711 230.998Z" fill="black"/>
<path d="M193.338 154.204L200.155 160.448L293.871 158.078L296.025 151.944L193.338 154.204Z" fill="#EFF0F4"/>
<path d="M168.6 230.291L193.338 154.204L200.154 160.448L175.668 233.429L168.6 230.291Z" fill="#EFF0F4"/>
<path opacity="0.03" d="M193.338 154.204L203.759 163.969L297.485 161.599L296.025 151.944L193.338 154.204Z" fill="black"/>
<path opacity="0.03" d="M168.6 230.292L193.338 154.204L203.759 163.969L179.273 236.95L168.6 230.292Z" fill="black"/>
<path opacity="0.03" d="M168.761 231.361L171.037 245.838L261.118 277.173L258.49 260.375L168.761 231.361Z" fill="black"/>
<path opacity="0.03" d="M102.17 278.938L168.762 231.361L171.671 245.828L106.257 294.575L102.17 278.938Z" fill="black"/>
<path d="M168.6 230.291L170.554 242.771L260.635 274.106L258.319 259.306L168.6 230.291Z" fill="#EFF0F4"/>
<path d="M101.999 277.859L168.6 230.291L171.188 242.761L105.774 291.509L101.999 277.859Z" fill="#EFF0F4"/>
<path opacity="0.03" d="M168.6 230.291L170.554 242.771L260.635 274.106L258.319 259.306L168.6 230.291Z" fill="black"/>
<path opacity="0.03" d="M101.999 277.859L168.6 230.291L171.188 242.761L105.774 291.509L101.999 277.859Z" fill="black"/>
<path d="M101.999 277.859L105.009 295.847L185.505 344.04L183.522 325.527L101.999 277.859Z" fill="#CCCAD6"/>
<path d="M138.677 275.014C138.677 275.014 137.278 277.687 139.412 278.918C140.419 279.503 147.699 280.936 155.008 282.308C158.592 282.973 162.187 283.619 165.076 284.124C168.6 284.749 171.037 285.132 171.037 285.132H172.889L184.085 285.344L194.617 285.546L199.077 284.628L196.51 267.094L183.179 252.415L180.39 254.776L179.917 255.18L172.587 258.751L151.907 268.839L142.604 273.379L141.517 273.914L138.677 275.014Z" fill="#FFE09C"/>
<path d="M206.608 283.478C206.608 283.478 204.101 264.31 196.872 257.591C196.872 257.591 190.932 251.538 187.277 249.883C187.277 249.883 184.166 247.674 181.105 254.332C181.105 254.332 192.855 261.536 195.392 272.744L197.919 283.952L206.608 283.478Z" fill="#E7C4C3"/>
<path d="M192.478 276.636C193.974 274.289 192.946 270.951 190.182 269.181C187.417 267.411 183.962 267.88 182.465 270.228C180.969 272.576 181.997 275.913 184.762 277.683C187.526 279.453 190.981 278.984 192.478 276.636Z" fill="#FF7F8E"/>
<path d="M174.112 272.474C175.609 270.126 174.581 266.788 171.816 265.018C169.051 263.249 165.597 263.717 164.1 266.065C162.603 268.413 163.631 271.751 166.396 273.52C169.161 275.29 172.615 274.821 174.112 272.474Z" fill="#FF7F8E"/>
<path d="M172.587 258.761C172.665 259.754 172.981 260.712 173.506 261.557C174.032 262.402 174.753 263.107 175.608 263.614C178.367 265.379 181.82 264.915 183.31 262.605C184.8 260.295 183.783 256.925 181.015 255.16C180.826 255.039 180.631 254.928 180.431 254.827L179.957 255.23L172.587 258.761Z" fill="#FF7F8E"/>
<path d="M173.393 281.45C173.05 282.003 172.827 282.622 172.739 283.267C172.65 283.912 172.698 284.568 172.88 285.193L184.075 285.405C184.032 284.378 183.733 283.379 183.206 282.498C182.678 281.617 181.939 280.882 181.055 280.361C178.337 278.636 174.883 279.11 173.393 281.45Z" fill="#FF7F8E"/>
<path d="M155.149 277.586C154.723 278.295 154.487 279.102 154.462 279.928C154.437 280.755 154.625 281.575 155.008 282.308C158.592 282.974 162.187 283.619 165.076 284.124L165.167 283.992C166.657 281.652 165.63 278.313 162.871 276.547C160.113 274.782 156.649 275.246 155.149 277.586Z" fill="#FF7F8E"/>
<path d="M142.604 273.4C143.035 273.882 143.53 274.303 144.074 274.651C146.833 276.417 150.286 275.953 151.776 273.642C152.205 272.931 152.442 272.12 152.465 271.289C152.488 270.458 152.296 269.635 151.907 268.901L142.604 273.4Z" fill="#FF7F8E"/>
<path d="M190.751 280.441L189.744 282.045C188.701 280.954 187.433 280.104 186.029 279.554L185.737 279.483C183.854 279.14 186.744 277.879 186.744 277.879C186.744 277.879 190.358 279.382 190.751 280.441Z" fill="#94CC79"/>
<path d="M182.001 268.86L180.995 270.474C179.953 269.379 178.685 268.525 177.279 267.972L176.987 267.901C175.115 267.569 177.994 266.297 177.994 266.297C177.994 266.297 181.609 267.801 182.001 268.86Z" fill="#94CC79"/>
<path d="M176.544 273.148L175.537 274.752C174.494 273.661 173.227 272.81 171.822 272.26L171.53 272.189C169.647 271.846 172.537 270.585 172.537 270.585C172.537 270.585 176.142 272.068 176.544 273.148Z" fill="#94CC79"/>
<path d="M164.895 277.183L163.888 278.797C162.847 277.702 161.579 276.848 160.173 276.295L159.881 276.225C157.998 275.892 160.888 274.621 160.888 274.621C160.888 274.621 164.493 276.083 164.895 277.183Z" fill="#94CC79"/>
<path d="M148.021 276.577L147.014 278.192C145.968 277.097 144.697 276.243 143.289 275.69L142.997 275.619C141.124 275.286 144.004 274.015 144.004 274.015C144.004 274.015 147.608 275.508 148.021 276.577Z" fill="#94CC79"/>
<path d="M161.865 270.524L160.858 272.128C159.816 271.033 158.548 270.179 157.143 269.626L156.851 269.556C154.968 269.223 157.857 267.952 157.857 267.952C157.857 267.952 161.462 269.455 161.865 270.524Z" fill="#94CC79"/>
<path d="M203.397 288.452C203.397 288.452 209.871 287.745 206.568 283.478C203.061 282.62 199.392 282.683 195.916 283.66C195.916 283.66 168.359 284.89 164.785 282.913C164.785 282.913 139.815 278.878 138.808 277.606C138.808 277.606 136.795 278.05 142.916 280.774C149.038 283.498 168.621 286.343 168.621 286.343L189.392 287.998L196.862 287.069L203.397 288.452Z" fill="#E7C4C3"/>
<path opacity="0.2" d="M203.397 288.452C203.397 288.452 209.871 287.745 206.568 283.478C203.061 282.62 199.392 282.683 195.916 283.66C195.916 283.66 168.359 284.89 164.785 282.913C164.785 282.913 139.815 278.878 138.808 277.606C138.808 277.606 136.795 278.05 142.916 280.774C149.038 283.498 168.621 286.343 168.621 286.343L189.392 287.998L196.862 287.069L203.397 288.452Z" fill="white"/>
<path d="M183.763 278.555C183.461 279.499 183.388 280.501 183.551 281.479C183.714 282.456 184.108 283.38 184.7 284.174C186.593 286.848 189.965 287.716 192.241 286.111C194.516 284.507 194.808 281.067 192.905 278.343C192.774 278.162 192.634 277.98 192.493 277.809L191.888 278.01L183.763 278.555Z" fill="#FF7F8E"/>
<path d="M183.522 325.527L258.319 259.306L260.615 273.924L185.505 344.04L183.522 325.527Z" fill="#CCCAD6"/>
<path d="M268.025 263.079L258.319 259.306L296.025 151.944L303.214 157.028L268.025 263.079Z" fill="#CCCAD6"/>
<g opacity="0.1">
<path opacity="0.1" d="M207.323 419.562C207.399 416.965 207.774 414.386 208.441 411.875L207.947 412.046C207.464 414.521 207.255 417.042 207.323 419.562Z" fill="white"/>
<path opacity="0.1" d="M212.327 455.75C204.494 456.214 180.209 445.016 175.346 439.165C174.704 438.376 174.312 437.414 174.218 436.4C174.075 437.223 174.101 438.066 174.295 438.878C174.488 439.69 174.846 440.454 175.346 441.122C180.209 446.973 204.494 458.161 212.327 457.697C220.603 457.213 248.341 458.706 249.318 445.995C249.386 445.653 249.34 445.299 249.187 444.986C246.952 456.668 220.392 455.296 212.327 455.75Z" fill="white"/>
</g>
<path d="M240.77 219.053C240.77 219.053 242.502 217.035 240.931 215.582C240.176 214.876 234.256 212.172 228.296 209.529C225.366 208.238 222.416 206.967 220.07 205.958L215.187 203.869L213.606 203.466L204.091 201.035L195.141 198.745L191.113 198.634L189.764 214.16L198.212 229.373L201.051 227.921L201.544 227.668L208.521 226.095L228.235 221.696L237.085 219.678L238.092 219.446L240.77 219.053Z" fill="#FFE09C"/>
<path d="M184.468 198.159C184.468 198.159 182.766 215.027 187.589 222.221C187.589 222.221 191.455 228.556 194.234 230.735C194.234 230.735 196.449 233.237 200.406 228.173C200.406 228.173 191.808 219.658 191.898 209.58L191.979 199.491L184.468 198.159Z" fill="#E7C4C3"/>
<path d="M202.421 214.41C204.168 212.709 203.959 209.655 201.955 207.59C199.951 205.524 196.911 205.229 195.165 206.93C193.418 208.631 193.627 211.684 195.631 213.75C197.635 215.815 200.675 216.111 202.421 214.41Z" fill="#FF7F8E"/>
<path d="M217.273 221.65C219.02 219.949 218.811 216.896 216.807 214.83C214.803 212.765 211.763 212.47 210.017 214.171C208.27 215.872 208.479 218.925 210.483 220.991C212.487 223.056 215.527 223.352 217.273 221.65Z" fill="#FF7F8E"/>
<path d="M208.562 226.105C208.695 225.246 208.623 224.368 208.35 223.543C208.076 222.718 207.611 221.971 206.991 221.363C204.977 219.345 201.957 219.002 200.195 220.707C198.433 222.412 198.665 225.459 200.668 227.527C200.802 227.669 200.943 227.804 201.091 227.931L201.584 227.678L208.562 226.105Z" fill="#FF7F8E"/>
<path d="M212.458 206.563C212.862 206.16 213.176 205.675 213.379 205.141C213.582 204.607 213.67 204.036 213.636 203.466L204.121 201.034C203.957 201.911 204.012 202.815 204.281 203.665C204.55 204.515 205.024 205.285 205.662 205.907C207.635 207.985 210.676 208.278 212.458 206.563Z" fill="#FF7F8E"/>
<path d="M227.218 213.544C227.728 213.021 228.095 212.374 228.283 211.668C228.472 210.961 228.476 210.218 228.296 209.509C225.366 208.218 222.416 206.946 220.07 205.938L219.959 206.028C218.217 207.733 218.429 210.79 220.432 212.858C222.436 214.926 225.476 215.249 227.218 213.544Z" fill="#FF7F8E"/>
<path d="M237.085 219.678C236.818 219.177 236.479 218.718 236.078 218.316C234.065 216.248 231.044 215.955 229.292 217.66C228.78 218.182 228.413 218.829 228.225 219.536C228.038 220.244 228.038 220.988 228.225 221.696L237.085 219.678Z" fill="#FF7F8E"/>
<path d="M197.356 203.94L198.554 202.78C199.229 203.921 200.143 204.901 201.232 205.655L201.464 205.776C203.004 206.442 200.265 206.936 200.265 206.936C200.265 206.936 197.527 204.929 197.356 203.94Z" fill="#94CC79"/>
<path d="M202.551 215.643L203.739 214.473C204.413 215.617 205.327 216.602 206.417 217.358L206.649 217.469C208.189 218.145 205.451 218.639 205.451 218.639C205.451 218.639 202.672 216.571 202.551 215.643Z" fill="#94CC79"/>
<path d="M208.058 213.05L209.256 211.88C209.93 213.024 210.844 214.009 211.935 214.765L212.166 214.876C213.707 215.552 210.968 216.046 210.968 216.046C210.968 216.046 208.189 214.039 208.058 213.05Z" fill="#94CC79"/>
<path d="M218.811 211.961L220.009 210.79C220.682 211.933 221.592 212.917 222.678 213.676L222.919 213.797C224.45 214.462 221.721 214.957 221.721 214.957C221.721 214.957 218.942 212.949 218.811 211.961Z" fill="#94CC79"/>
<path d="M233.118 215.855L234.317 214.685C234.985 215.83 235.896 216.815 236.985 217.57L237.226 217.681C238.757 218.357 236.028 218.851 236.028 218.851C236.028 218.851 233.249 216.833 233.118 215.855Z" fill="#94CC79"/>
<path d="M220.07 218.226L221.268 217.066C221.943 218.206 222.857 219.187 223.946 219.941C224.018 219.991 224.095 220.032 224.177 220.062C225.718 220.728 222.979 221.232 222.979 221.232C222.979 221.232 220.2 219.215 220.07 218.226Z" fill="#94CC79"/>
<path d="M188.173 194.548C188.173 194.548 182.505 193.852 184.468 198.159C187.29 199.603 190.434 200.298 193.6 200.177C193.6 200.177 217.371 204.677 220.029 207.078C220.029 207.078 240.539 215.532 241.173 216.843C241.173 216.843 242.975 216.843 238.303 213.302C233.632 209.761 217.492 203.355 217.492 203.355L200.094 197.756L193.53 197.04L188.173 194.548Z" fill="#E7C4C3"/>
<path opacity="0.2" d="M188.173 194.548C188.173 194.548 182.505 193.852 184.468 198.159C187.29 199.603 190.434 200.298 193.6 200.177C193.6 200.177 217.371 204.677 220.029 207.078C220.029 207.078 240.539 215.532 241.173 216.843C241.173 216.843 242.975 216.843 238.303 213.302C233.632 209.761 217.492 203.355 217.492 203.355L200.094 197.756L193.53 197.04L188.173 194.548Z" fill="white"/>
<path d="M159.187 218.044C162.078 216.523 164.695 214.528 166.929 212.142C167.936 210.952 168.782 209.61 169.819 208.439C172.433 205.641 175.83 203.7 179.565 202.871C183.27 202.055 187.059 201.686 190.852 201.771C193.39 201.609 195.936 201.917 198.362 202.679C199.576 203.077 200.67 203.777 201.54 204.714C202.41 205.651 203.028 206.794 203.336 208.036C203.89 211.063 201.917 213.998 199.551 215.945C197.347 217.747 194.755 219.008 191.979 219.628C189.717 220.02 187.435 220.286 185.143 220.425C171.671 221.837 159.65 229.182 147.89 235.87C137.52 241.752 131.64 241.48 120.877 246.584C120.454 243.356 115.581 245.858 115.651 242.599C115.712 240.168 115.832 236.455 118.128 235.023C120.796 233.358 125.176 233.005 128.196 231.996C135.136 229.716 141.914 226.969 148.484 223.774C152.115 221.992 155.683 220.082 159.187 218.044Z" fill="#A0616A"/>
<path opacity="0.1" d="M70.2228 209.015L121.843 255.825C121.843 255.825 131.579 236.324 134.499 236.324C137.419 236.324 99.4611 178.82 99.4611 178.82C99.4611 178.82 89.7251 167.117 83.8854 172.968C78.0458 178.82 60.4867 174.875 70.2228 209.015Z" fill="black"/>
<path d="M69.2461 207.067L120.836 253.878C120.836 253.878 130.572 234.367 133.492 234.367C136.412 234.367 98.4443 176.862 98.4443 176.862C98.4443 176.862 88.7082 165.149 82.8686 171.001C77.029 176.852 59.5101 172.928 69.2461 207.067Z" fill="#99FFCC"/>
<path d="M154.183 124.554C155.309 123.298 156.224 121.867 156.891 120.316C161.341 110.228 154.283 97.5566 142.232 94.0861C136.191 92.3206 129.425 92.6737 123.394 90.7973C118.541 89.2941 114.453 86.4491 110.003 84.2296C101.64 80.101 92.3871 78.1115 83.07 78.4388C73.9582 78.7616 64.051 81.9698 60.3156 89.0217C54.8586 99.2918 64.8967 112.225 58.8154 122.223C54.3451 129.568 43.5015 131.737 34.5105 134.925C25.2022 138.15 16.7276 143.413 9.70214 150.33C2.65431 157.392 -2.37983 167.077 1.16422 175.834C3.22823 180.969 7.88985 184.984 11.595 189.413C17.7766 196.68 21.3925 205.788 21.8822 215.324C22.3719 224.86 19.7079 234.291 14.3034 242.156C12.5716 244.648 10.5479 247.079 9.83304 249.904C8.12142 256.643 15.0283 263.423 23.0125 264.734C30.9967 266.046 39.2829 263.059 45.4951 258.651C51.2303 254.689 55.8465 249.309 58.896 243.034C66.2761 227.356 61.0909 209.741 60.3559 192.863C60.2653 190.896 60.3559 188.757 61.7353 187.214C63.8697 184.903 67.8971 184.964 71.3404 184.661C80.2509 183.874 88.4566 178.87 92.2322 171.97C99.4512 158.693 91.0442 140.14 103.66 130.153C119.538 117.582 142.393 137.457 154.183 124.554Z" fill="#3F3D56"/>
<path opacity="0.1" d="M142.232 94.0454H142.131C146.843 99.5134 148.615 106.898 145.816 113.274C145.149 114.825 144.234 116.256 143.107 117.511C131.317 130.415 108.462 110.54 92.5846 123.111C79.969 133.098 88.376 151.651 81.1571 164.928C77.4116 171.828 69.1757 176.832 60.2653 177.619C56.8219 177.922 52.7946 177.861 50.6601 180.171C49.2404 181.715 49.1901 183.854 49.2807 185.821C50.0157 202.699 55.2009 220.314 47.8208 235.991C44.7714 242.267 40.1551 247.647 34.4199 251.608C28.2077 255.997 19.9315 259.024 11.9373 257.712L11.3835 257.591C12.7487 259.502 14.4801 261.121 16.4768 262.355C18.4734 263.588 20.6952 264.41 23.0125 264.774C31.0067 266.075 39.2325 263.049 45.495 258.65C51.2303 254.688 55.8465 249.309 58.896 243.033C66.2761 227.356 61.0909 209.741 60.3559 192.863C60.2653 190.896 60.3559 188.757 61.7352 187.213C63.8697 184.903 67.8971 184.963 71.3404 184.661C80.2509 183.874 88.4566 178.87 92.2322 171.969C99.4512 158.693 91.0442 140.14 103.66 130.152C119.538 117.582 142.393 137.456 154.183 124.553C155.309 123.298 156.224 121.866 156.891 120.316C161.341 110.197 154.283 97.6067 142.232 94.0454Z" fill="black"/>
</svg>
