<svg width="736" height="614" viewBox="0 0 736 614" fill="none" xmlns="http://www.w3.org/2000/svg">
<g clip-path="url(#clip0)">
<path d="M695.292 196.416C695.292 221.971 689.24 243.008 678.741 261.028C675.276 266.964 671.343 272.613 666.979 277.922C628.385 325.131 556.633 350.97 491.783 392.824C300.355 516.366 279.62 318.403 288.266 196.416C291.753 147.194 310.919 102.106 341.368 67.584C347.763 60.3234 354.671 53.5313 362.038 47.2601C396.607 17.817 441.267 0 491.783 0C578.451 0 652.463 52.2812 681.807 125.954C690.729 148.374 695.305 172.286 695.292 196.416Z" fill="#99FFCC"/>
<path d="M535.142 44.2664L341.368 67.584C347.763 60.3234 354.671 53.5313 362.038 47.2601L535.142 44.2664Z" fill="#D0CDE1"/>
<path d="M678.741 261.028C675.276 266.964 671.343 272.613 666.979 277.922L500.995 257.954L678.741 261.028Z" fill="#D0CDE1"/>
<path d="M688.578 146.213L407.272 109.721L681.807 125.954C684.444 132.574 686.704 139.338 688.578 146.213Z" fill="#D0CDE1"/>
<path d="M307.348 52.319C307.348 52.8204 307.333 53.3145 307.29 53.8014C307.07 56.8189 306.18 59.7494 304.684 62.3793C303.188 65.0093 301.125 67.2724 298.644 69.004C296.164 70.7356 293.328 71.892 290.344 72.389C287.36 72.8859 284.303 72.711 281.395 71.8768C278.487 71.0426 275.802 69.5703 273.535 67.567C271.268 65.5636 269.476 63.0798 268.29 60.2964C267.104 57.513 266.554 54.5001 266.68 51.4772C266.805 48.4543 267.603 45.4974 269.016 42.822C269.453 41.9836 269.954 41.1795 270.513 40.4168C272.946 37.0422 276.355 34.4949 280.28 33.1186C284.206 31.7422 288.459 31.603 292.466 32.7198C296.473 33.8365 300.041 36.1555 302.689 39.3639C305.337 42.5723 306.938 46.5157 307.275 50.6623C307.326 51.2073 307.348 51.7595 307.348 52.319Z" fill="#99FFCC"/>
<path d="M307.348 52.3191C307.348 52.8204 307.333 53.3145 307.29 53.8014L276.833 50.1392L307.275 50.6623C307.326 51.2073 307.348 51.7595 307.348 52.3191Z" fill="#D0CDE1"/>
<path d="M300.083 62.5718L271.908 65.9652C271.108 65.0735 270.388 64.113 269.757 63.095L300.083 62.5718Z" fill="#D0CDE1"/>
<path d="M292.091 40.0462L269.016 42.8219C269.453 41.9835 269.954 41.1795 270.513 40.4168L292.091 40.0462Z" fill="#D0CDE1"/>
<path d="M586.143 418.633C585.908 419.076 585.663 419.505 585.397 419.915C583.788 422.477 581.628 424.648 579.074 426.27C576.521 427.892 573.637 428.924 570.634 429.29C567.632 429.657 564.585 429.349 561.716 428.389C558.847 427.429 556.229 425.841 554.051 423.741C551.873 421.64 550.192 419.081 549.128 416.249C548.065 413.416 547.646 410.382 547.903 407.368C548.16 404.353 549.086 401.434 550.614 398.822C552.142 396.211 554.233 393.973 556.735 392.272C557.514 391.737 558.333 391.261 559.184 390.85C562.915 389.009 567.12 388.357 571.233 388.982C575.345 389.607 579.167 391.478 582.184 394.343C585.2 397.208 587.265 400.93 588.1 405.005C588.935 409.081 588.501 413.314 586.855 417.135C586.645 417.641 586.405 418.139 586.143 418.633Z" fill="#99FFCC"/>
<path d="M586.143 418.633C585.908 419.076 585.663 419.505 585.396 419.915L560.21 402.401L586.855 417.135C586.644 417.641 586.405 418.139 586.143 418.633Z" fill="#D0CDE1"/>
<path d="M574.919 424.283L548.442 414.071C548.153 412.908 547.968 411.723 547.887 410.527L574.919 424.283Z" fill="#D0CDE1"/>
<path d="M578.418 400.639L556.735 392.272C557.514 391.737 558.333 391.261 559.184 390.85L578.418 400.639Z" fill="#D0CDE1"/>
<path d="M730.223 67.9056C730.573 68.2645 730.908 68.6284 731.216 69.0074C733.165 71.3213 734.574 74.0408 735.339 76.968C736.104 79.8951 736.207 82.9561 735.64 85.928C735.073 88.9 733.85 91.708 732.061 94.1475C730.272 96.587 727.961 98.5967 725.297 100.03C722.632 101.463 719.682 102.284 716.661 102.433C713.639 102.582 710.623 102.055 707.831 100.891C705.039 99.726 702.541 97.9532 700.521 95.7014C698.5 93.4495 697.008 90.7753 696.151 87.8735C695.879 86.9679 695.676 86.0429 695.544 85.1066C694.929 80.9919 695.592 76.7877 697.441 73.0612C699.291 69.3347 702.238 66.2651 705.887 64.2665C709.535 62.2678 713.708 61.4363 717.844 61.884C721.98 62.3317 725.878 64.0371 729.015 66.7702C729.431 67.1249 729.833 67.505 730.223 67.9056Z" fill="#99FFCC"/>
<path d="M730.223 67.9056C730.573 68.2646 730.908 68.6284 731.217 69.0074L706.856 87.6531L729.015 66.7703C729.432 67.1249 729.833 67.505 730.223 67.9056Z" fill="#D0CDE1"/>
<path d="M732.18 80.3189L714.378 102.423C713.183 102.343 711.997 102.158 710.835 101.87L732.18 80.3189Z" fill="#D0CDE1"/>
<path d="M710.733 69.7734L696.151 87.8735C695.879 86.9679 695.676 86.0429 695.544 85.1066L710.733 69.7734Z" fill="#D0CDE1"/>
<path d="M348.577 442.848C348.577 442.848 393.219 444.708 393.219 455.871C393.219 467.033 342.996 455.871 342.996 455.871L348.577 442.848Z" fill="#A0616A"/>
<path d="M281.613 614L197.909 608.419L194.189 563.771L175.588 602.838L93.7435 591.676C95.6036 520.983 125.365 452.15 127.225 442.848C129.085 433.546 133.531 395.112 133.531 395.112C141.66 377.866 184.256 376.248 217.644 377.81C231.484 378.443 243.76 379.633 251.331 380.489C256.334 381.047 259.292 381.457 259.292 381.457C272.629 395.205 281.223 413.938 286.505 434.867C305.552 510.267 281.613 614 281.613 614Z" fill="#2F2E41"/>
<path d="M188.608 182.4C214.291 182.4 235.111 161.577 235.111 135.891C235.111 110.205 214.291 89.3823 188.608 89.3823C162.926 89.3823 142.106 110.205 142.106 135.891C142.106 161.577 162.926 182.4 188.608 182.4Z" fill="#A0616A"/>
<path d="M156.987 147.053C156.987 147.053 143.966 204.724 123.505 221.467C103.044 238.21 203.489 221.467 203.489 221.467C203.489 221.467 181.168 184.26 197.909 167.517C214.65 150.774 156.987 147.053 156.987 147.053Z" fill="#A0616A"/>
<path d="M251.852 385.177L220.993 388.6L134.666 398.2C134.666 398.2 134.257 397.102 133.531 395.112C127.263 378.015 97.0732 294.82 93.7436 269.836C90.0234 241.931 129.085 208.444 129.085 208.444C129.085 208.444 166.287 201.003 177.448 201.003C188.608 201.003 233.251 217.746 233.251 217.746L249.898 367.523L251.331 380.489L251.852 385.177Z" fill="#D0CDE1"/>
<path opacity="0.15" d="M286.505 434.867L223.95 398.2C223.95 398.2 222.853 394.628 220.993 388.6C220.062 385.587 218.928 381.94 217.644 377.81C210.427 354.63 198.318 316.382 188.608 288.439C173.728 245.651 246.271 364.714 246.271 364.714L249.898 367.523L251.331 380.489C256.334 381.047 259.292 381.457 259.292 381.457C272.629 395.205 281.223 413.938 286.505 434.867Z" fill="black"/>
<path d="M203.489 221.467C203.489 221.467 184.888 245.651 199.769 288.439C214.65 331.227 235.111 398.2 235.111 398.2L342.996 461.452L357.877 442.848L257.432 364.714C257.432 364.714 253.712 223.327 235.111 217.746C216.51 212.165 203.489 221.467 203.489 221.467Z" fill="#D0CDE1"/>
<path d="M111.414 384.247C111.414 384.247 137.456 438.197 148.616 432.616C159.777 427.035 120.715 371.225 120.715 371.225L111.414 384.247Z" fill="#A0616A"/>
<path d="M108.624 236.35L10.0393 318.205C10.0393 318.205 -27.1626 344.25 41.6609 362.853C110.484 381.457 116.065 392.619 116.065 392.619C116.065 392.619 123.505 368.434 132.806 372.155L52.8215 333.088L117.925 294.02L108.624 236.35Z" fill="#D0CDE1"/>
<path d="M69.002 174.064C74.1761 171.501 85.6017 166.329 95.334 160.098C94.6515 139.827 97.1474 121.425 104.454 111.67C108.555 102.357 117.166 93.0335 123.911 85.6908C140.475 67.6592 177.1 57.5941 183.596 66.6033C232.728 67.5734 237.901 106.091 237.901 106.091C237.645 122.202 220.903 122.711 206.237 122.124C207.551 133.123 204.051 144.551 193.916 149.619C174.535 159.311 168.72 171.911 178.411 180.633C188.101 189.356 205.544 212.616 182.287 218.431C159.03 224.246 156.123 235.877 162.906 240.723C169.689 245.569 147.401 232 147.401 232C147.401 232 143.525 255.26 123.175 249.445C121.351 248.924 119.528 247.589 117.736 245.592C112.24 251.631 107.337 255.203 103.642 255.222C82.4778 255.334 85.0157 231.89 85.0157 231.89C85.0157 231.89 59.895 238.946 67.7336 236.109C75.5722 233.272 75.9079 221.288 55.0796 209.417C34.2513 197.546 57.3188 179.85 69.002 174.064Z" fill="#2F2E41"/>
<path d="M328.672 234.834L328.335 234.789L329.158 237.918C329.936 242.284 331.066 246.579 332.536 250.763L356.676 342.542C357.447 345.471 359.055 348.112 361.305 350.14C363.555 352.168 366.347 353.494 369.34 353.958L418.57 361.575C421.753 362.067 425.011 361.559 427.893 360.12C430.775 358.682 433.139 356.384 434.66 353.544L481.444 266.147C482.906 263.726 484.242 261.231 485.446 258.672L487.035 255.704L486.787 255.672C491.746 243.938 493.929 231.218 493.166 218.502C492.402 205.786 488.713 193.418 482.385 182.363C476.057 171.307 467.262 161.863 456.685 154.765C446.107 147.668 434.034 143.109 421.407 141.445C408.779 139.781 395.937 141.056 383.883 145.171C371.829 149.285 360.887 156.129 351.912 165.168C342.936 174.206 336.169 185.196 332.138 197.28C328.107 209.364 326.921 222.216 328.672 234.834H328.672Z" fill="#3F3D56"/>
<path d="M421.591 367.571C420.724 367.571 419.858 367.504 419.001 367.371L367.543 359.409C364.274 358.904 361.224 357.455 358.768 355.241C356.311 353.026 354.555 350.142 353.714 346.943L328.481 251.009C326.939 246.617 325.754 242.108 324.937 237.526L324.299 233.329C322.582 219.921 324.005 206.298 328.455 193.534C332.905 180.77 340.26 169.216 349.941 159.783C359.621 150.35 371.361 143.296 384.235 139.179C397.108 135.062 410.762 133.994 424.119 136.059L423.896 137.496C410.685 135.46 397.181 136.54 384.461 140.649C371.741 144.759 360.157 151.786 350.634 161.167C341.111 170.549 333.912 182.027 329.612 194.685C325.311 207.344 324.028 220.832 325.864 234.074L326.355 237.214C327.165 241.757 328.341 246.228 329.869 250.583L355.119 346.574C355.888 349.499 357.494 352.136 359.741 354.161C361.987 356.186 364.776 357.511 367.765 357.973L419.223 365.935C422.402 366.424 425.654 365.915 428.531 364.479C431.408 363.043 433.77 360.75 435.29 357.916L436.572 358.602C435.118 361.311 432.957 363.575 430.319 365.154C427.682 366.734 424.665 367.569 421.591 367.571Z" fill="#D0CDE1"/>
<path d="M434.644 255.695L403.333 341.198L405.098 341.844L436.409 256.341L434.644 255.695Z" fill="#D0CDE1"/>
<path d="M383.521 247.783L381.643 247.866L385.64 338.835L387.517 338.753L383.521 247.783Z" fill="#D0CDE1"/>
<path d="M417.241 411.063L351.303 400.861C350.812 400.782 350.373 400.513 350.081 400.111C349.789 399.71 349.667 399.209 349.743 398.718C349.819 398.227 350.086 397.786 350.486 397.492C350.886 397.197 351.386 397.073 351.877 397.146L417.816 407.348C418.061 407.385 418.296 407.469 418.508 407.597C418.721 407.725 418.905 407.893 419.052 408.093C419.199 408.292 419.305 408.519 419.364 408.759C419.423 409 419.434 409.25 419.396 409.495C419.359 409.74 419.273 409.975 419.144 410.186C419.015 410.398 418.845 410.582 418.645 410.727C418.444 410.873 418.217 410.978 417.976 411.036C417.735 411.093 417.485 411.103 417.241 411.063Z" fill="#3F3D56"/>
<path d="M418.932 397.059L352.993 386.857C352.748 386.82 352.513 386.736 352.301 386.608C352.088 386.48 351.903 386.312 351.757 386.112C351.61 385.913 351.504 385.686 351.445 385.446C351.385 385.205 351.375 384.955 351.412 384.71C351.45 384.465 351.536 384.23 351.665 384.019C351.794 383.807 351.964 383.623 352.164 383.478C352.364 383.332 352.592 383.227 352.833 383.169C353.074 383.112 353.323 383.102 353.568 383.142L419.506 393.344C419.751 393.38 419.987 393.465 420.199 393.593C420.411 393.72 420.596 393.889 420.743 394.088C420.89 394.288 420.996 394.514 421.055 394.755C421.114 394.996 421.125 395.246 421.087 395.491C421.049 395.735 420.963 395.97 420.834 396.182C420.705 396.393 420.536 396.577 420.336 396.723C420.135 396.869 419.908 396.974 419.667 397.031C419.426 397.089 419.176 397.098 418.932 397.059Z" fill="#3F3D56"/>
<path d="M420.622 383.055L354.684 372.853C354.194 372.774 353.755 372.504 353.463 372.103C353.17 371.701 353.049 371.2 353.125 370.709C353.201 370.218 353.468 369.777 353.868 369.483C354.268 369.188 354.768 369.064 355.259 369.137L421.197 379.339C421.687 379.418 422.127 379.688 422.419 380.089C422.711 380.491 422.832 380.992 422.756 381.483C422.681 381.974 422.413 382.414 422.014 382.709C421.614 383.004 421.114 383.128 420.622 383.055H420.622Z" fill="#3F3D56"/>
<path d="M382.222 419.213C395.301 421.236 407.032 415.586 408.423 406.593L361.059 399.265C359.668 408.258 369.143 417.189 382.222 419.213Z" fill="#3F3D56"/>
<path d="M405.924 237.681C403.111 237.246 400.783 235.022 399.507 233.531C399.088 233.042 398.681 232.535 398.273 232.027C396.787 230.177 395.383 228.43 393.429 227.519C389.116 225.506 384.034 228.317 379.633 231.333L378.57 229.783C383.408 226.466 389.05 223.402 394.224 225.815C396.574 226.911 398.183 228.914 399.738 230.85C400.134 231.343 400.529 231.835 400.934 232.309C402.261 233.858 404.908 236.37 407.743 235.79C408.938 235.442 410.049 234.854 411.009 234.061C411.741 233.515 412.513 233.028 413.321 232.603C414.958 231.817 416.791 231.534 418.589 231.788C420.386 232.042 422.069 232.823 423.424 234.031C423.908 234.489 424.365 234.973 424.796 235.481C425.641 236.445 426.439 237.355 427.478 237.685C429.014 238.176 430.638 237.298 432.358 236.371C434.132 235.413 435.967 234.423 438.047 234.667C438.114 234.675 438.183 234.684 438.25 234.695C441.952 235.267 443.659 239.362 444.624 242.418L442.832 242.984C441.52 238.83 439.922 236.764 437.827 236.534C436.337 236.359 434.838 237.168 433.251 238.024C431.262 239.099 429.203 240.209 426.908 239.476C425.371 238.987 424.36 237.835 423.383 236.721C422.997 236.265 422.588 235.83 422.156 235.418C421.076 234.472 419.745 233.862 418.324 233.661C416.903 233.46 415.454 233.678 414.155 234.287C413.436 234.67 412.747 235.107 412.094 235.596C410.928 236.547 409.574 237.241 408.12 237.632C407.397 237.779 406.653 237.796 405.924 237.681Z" fill="#D0CDE1"/>
</g>
<defs>
<clipPath id="clip0">
<rect width="736" height="614" fill="white"/>
</clipPath>
</defs>
</svg>
