<svg width="824" height="643" viewBox="0 0 824 643" fill="none" xmlns="http://www.w3.org/2000/svg">
<path d="M412 643C639.541 643 824 634.43 824 623.859C824 613.287 639.541 604.717 412 604.717C184.459 604.717 0 613.287 0 623.859C0 634.43 184.459 643 412 643Z" fill="#3F3D56"/>
<path opacity="0.1" d="M609.261 640.503C662.124 640.503 704.978 634.541 704.978 627.187C704.978 619.833 662.124 613.872 609.261 613.872C556.397 613.872 513.543 619.833 513.543 627.187C513.543 634.541 556.397 640.503 609.261 640.503Z" fill="black"/>
<path opacity="0.1" d="M273.002 640.503C339.656 640.503 393.689 633.424 393.689 624.691C393.689 615.958 339.656 608.878 273.002 608.878C206.349 608.878 152.315 615.958 152.315 624.691C152.315 633.424 206.349 640.503 273.002 640.503Z" fill="black"/>
<path d="M417.602 185.423L438.744 180.591L454.449 185.423L334.848 613.042L317.935 622.706L334.848 404.064L417.602 185.423Z" fill="#99FFCC"/>
<path opacity="0.1" d="M417.602 185.423L438.744 180.591L454.449 185.423L334.848 613.042L317.935 622.706L334.848 404.064L417.602 185.423Z" fill="black"/>
<path d="M119.507 52.8489L320.049 622.404L440.857 180.893L119.507 52.8489Z" fill="#99FFCC"/>
<path d="M180.509 411.158C214.325 441.745 207.945 472.525 185.514 497.319C184.993 497.895 184.468 498.462 183.94 499.021C182.875 500.147 181.794 501.237 180.696 502.29C158.867 523.234 130.725 529.395 99.2762 500.949C66.7303 471.511 63.2855 392.77 63.0705 386.904C63.073 386.901 63.073 386.901 63.0727 386.896C63.0641 386.672 63.0612 386.559 63.0612 386.559C63.0612 386.559 146.695 380.574 180.509 411.158Z" fill="#99FFCC"/>
<path d="M178.864 494.274L170.774 457.1L181.345 496.593L183.94 499.02C182.875 500.147 181.794 501.237 180.696 502.29L148.467 469.921L148.192 469.698L148.17 469.623L145.126 466.564L104.669 459.977L142.776 464.348L143.491 464.92L119.14 440.465L79.9809 430.733L114.805 436.228L63.0705 386.904L62.899 386.739L63.0727 386.896L104.655 424.927L100.808 395.881L108.199 428.243L130.749 449.316L120.669 416.315L134.067 452.412L146.606 464.13L133.279 417.414L150.978 468.22L178.864 494.274Z" fill="#3F3D56"/>
<path d="M270.505 353.381C242.52 353.381 215.163 361.679 191.895 377.225C168.626 392.771 150.49 414.867 139.781 440.719C129.071 466.571 126.269 495.018 131.729 522.463C137.188 549.908 150.665 575.117 170.453 594.903C190.241 614.69 215.453 628.164 242.901 633.624C270.348 639.083 298.798 636.281 324.653 625.573C350.508 614.864 372.606 596.73 388.154 573.464C403.701 550.197 412 522.844 412 494.861C412 457.338 397.092 421.352 370.557 394.82C344.022 368.287 308.032 353.381 270.505 353.381ZM273.002 529.399C257.143 529.399 244.287 513.75 244.287 494.445C244.287 475.141 257.143 459.491 273.002 459.491C288.861 459.491 301.717 475.141 301.717 494.445C301.717 513.75 288.861 529.399 273.002 529.399Z" fill="#3F3D56"/>
<path opacity="0.1" d="M272.17 529.399C256.311 529.399 243.455 513.75 243.455 494.445C243.455 475.141 256.311 459.491 272.17 459.491C287.529 459.491 300.071 474.17 300.847 492.631C300.864 492.127 300.885 491.624 300.885 491.116C300.883 481.835 297.838 472.81 292.216 465.424C286.594 458.038 278.705 452.699 269.759 450.225C260.812 447.75 251.301 448.277 242.682 451.724C234.064 455.172 226.813 461.349 222.041 469.311C217.27 477.272 215.24 486.578 216.263 495.804C217.287 505.029 221.307 513.664 227.708 520.386C234.108 527.108 242.537 531.547 251.702 533.021C260.866 534.496 270.262 532.926 278.449 528.551C276.403 529.111 274.291 529.396 272.17 529.399Z" fill="black"/>
<path d="M123.433 0C111.366 -1.64601e-06 99.571 3.57771 89.5382 10.2807C79.5054 16.9837 71.6858 26.511 67.0682 37.6577C62.4506 48.8044 61.2425 61.0699 63.5965 72.9032C65.9505 84.7364 71.761 95.606 80.2932 104.137C88.8253 112.669 99.696 118.478 111.53 120.832C123.365 123.186 135.632 121.978 146.78 117.361C157.927 112.744 167.456 104.925 174.159 94.8932C180.863 84.8615 184.441 73.0673 184.441 61.0022C184.441 52.9913 182.863 45.0588 179.797 37.6577C176.731 30.2565 172.237 23.5317 166.572 17.8671C160.907 12.2026 154.181 7.70916 146.78 4.64352C139.378 1.57787 131.444 0 123.433 0ZM124.509 75.8939C117.671 75.8939 112.128 69.1463 112.128 60.8228C112.128 52.4992 117.671 45.7517 124.509 45.7517C131.347 45.7517 136.89 52.4992 136.89 60.8228C136.89 69.1463 131.347 75.8939 124.509 75.8939Z" fill="#3F3D56"/>
<path opacity="0.1" d="M124.15 75.8939C117.313 75.8939 111.769 69.1463 111.769 60.8228C111.769 52.4992 117.313 45.7516 124.15 45.7516C130.773 45.7516 136.181 52.0806 136.515 60.0406C136.523 59.8234 136.532 59.6065 136.532 59.3874C136.531 55.3854 135.218 51.4941 132.794 48.3096C130.37 45.1251 126.968 42.823 123.111 41.7561C119.253 40.6893 115.152 40.9164 111.436 42.4028C107.72 43.8892 104.594 46.5528 102.537 49.9855C100.479 53.4183 99.604 57.4308 100.045 61.4084C100.487 65.386 102.22 69.1092 104.98 72.0076C107.74 74.906 111.374 76.8198 115.325 77.4556C119.277 78.0915 123.328 77.4144 126.858 75.5281C125.975 75.7697 125.065 75.8927 124.15 75.8939Z" fill="black"/>
<path d="M567.644 550.622H558.489V628.02C558.489 628.02 617.584 647.161 675.014 628.02V550.622H567.644Z" fill="#3F3D56"/>
<path d="M615.919 559.776C647.637 559.776 673.349 555.864 673.349 551.038C673.349 546.211 647.637 542.299 615.919 542.299C584.201 542.299 558.489 546.211 558.489 551.038C558.489 555.864 584.201 559.776 615.919 559.776Z" fill="#3F3D56"/>
<path opacity="0.1" d="M615.919 559.776C647.637 559.776 673.349 555.864 673.349 551.038C673.349 546.211 647.637 542.299 615.919 542.299C584.201 542.299 558.489 546.211 558.489 551.038C558.489 555.864 584.201 559.776 615.919 559.776Z" fill="black"/>
<path d="M682.678 458.148C668.19 511.698 618.566 544.863 618.566 544.863C618.566 544.863 592.432 491.206 606.92 437.656C621.407 384.106 671.031 350.941 671.031 350.941C671.031 350.941 697.166 404.598 682.678 458.148Z" fill="#3F3D56"/>
<path d="M550.88 458.148C565.368 511.698 614.991 544.863 614.991 544.863C614.991 544.863 641.126 491.206 626.638 437.656C612.151 384.106 562.527 350.941 562.527 350.941C562.527 350.941 536.392 404.598 550.88 458.148Z" fill="#99FFCC"/>
<path d="M572.169 446.64C611.923 485.335 616.779 544.819 616.779 544.819C616.779 544.819 557.18 541.566 517.425 502.87C477.67 464.174 472.815 404.69 472.815 404.69C472.815 404.69 532.414 407.944 572.169 446.64Z" fill="#3F3D56"/>
<path d="M661.389 446.64C621.635 485.335 616.779 544.819 616.779 544.819C616.779 544.819 676.378 541.566 716.133 502.87C755.888 464.174 760.743 404.69 760.743 404.69C760.743 404.69 701.144 407.944 661.389 446.64Z" fill="#3F3D56"/>
<path d="M616.752 369.194C626.864 369.194 635.063 360.996 635.063 350.884C635.063 340.772 626.864 332.575 616.752 332.575C606.639 332.575 598.44 340.772 598.44 350.884C598.44 360.996 606.639 369.194 616.752 369.194Z" fill="#99FFCC"/>
<path d="M275.862 208.033C275.862 208.033 311.108 208.992 316.929 211.109C322.75 213.227 325.353 228.37 325.353 228.37L297.987 236.97L277.518 235.811L262.114 236.899L270.715 214.374L275.862 208.033Z" fill="#2F2E41"/>
<path d="M277.382 196.469C277.382 196.469 279.701 205.425 274.555 211.766C269.408 218.107 296.68 240.702 296.68 240.702L311.067 238.23C311.067 238.23 307.896 210.713 312.155 203.745C316.414 196.777 277.382 196.469 277.382 196.469Z" fill="#9F616A"/>
<path opacity="0.1" d="M277.382 196.469C277.382 196.469 279.701 205.425 274.555 211.766C269.408 218.107 296.68 240.702 296.68 240.702L311.067 238.23C311.067 238.23 307.896 210.713 312.155 203.745C316.414 196.777 277.382 196.469 277.382 196.469Z" fill="black"/>
<path d="M373.064 458.308L341.32 500.4L362.984 513.046L392.799 464.27L373.064 458.308Z" fill="#9F616A"/>
<path d="M350.797 501.11C350.797 501.11 339.108 487.529 339.628 490.557C340.149 493.586 331.311 519.269 339.534 521.754C347.757 524.238 418.272 530.827 419.242 522.865C420.212 514.904 398.206 509.332 398.206 509.332C398.206 509.332 385.132 496.768 382.233 498.046C379.335 499.323 350.797 501.11 350.797 501.11Z" fill="#2F2E41"/>
<path d="M365.942 498.507L391.297 541.699L410.44 530.615L384.872 495.254L365.942 498.507Z" fill="#9F616A"/>
<path d="M405.967 395.749L398.442 406.397C398.442 406.397 362.57 456.214 366.379 460.236C370.189 464.258 386.055 479.46 394.124 476.514C402.193 473.569 430.86 422.651 430.86 422.651L423.383 392.756L405.967 395.749Z" fill="#2F2E41"/>
<path d="M251.436 385.67C251.436 385.67 259.47 400.659 279.832 405.734C300.194 410.81 321.467 421.185 322.224 421.055C322.981 420.924 325.123 419.777 325.643 422.805C326.164 425.834 331.749 431.11 331.749 431.11C331.749 431.11 354.24 507.534 362.83 507.616C371.42 507.699 389.072 501.547 389.439 499.146C389.806 496.744 363.137 418.7 362.877 417.186L359.753 399.015C359.753 399.015 395.023 404.646 398.312 405.639C401.601 406.633 430.86 422.651 430.86 422.651C430.86 422.651 460.687 401.156 432.789 379.447C404.89 357.739 356.937 341.815 356.937 341.815L339.734 336.977L324.741 336.082L322.534 327.617L287.025 329.666L249.969 345.388L251.436 385.67Z" fill="#2F2E41"/>
<path d="M298.3 214.295C313.576 214.295 325.96 201.913 325.96 186.638C325.96 171.364 313.576 158.982 298.3 158.982C283.024 158.982 270.641 171.364 270.641 186.638C270.641 201.913 283.024 214.295 298.3 214.295Z" fill="#9F616A"/>
<path d="M273.277 208.867L276.604 208.296C276.604 208.296 282.612 231.428 301.199 235.249C301.199 235.249 310.371 224.263 309.979 222.409C309.588 220.556 317.243 210.665 321.313 216.202C325.383 221.739 320.319 319.267 323.738 321.018C327.158 322.769 334.493 324.626 328.589 331.097C322.685 337.568 299.235 346.276 294.041 343.271C288.847 340.266 278.235 314.807 273.644 306.242C269.053 297.677 261.706 268.539 261.706 268.539C261.706 268.539 252.323 236.633 258.097 229.405C263.871 222.176 273.277 208.867 273.277 208.867Z" fill="#D0CDE1"/>
<path d="M299.748 328.935C299.13 335.729 298.072 342.475 296.58 349.132C295.224 354.548 293.644 357.818 291.842 357.679C287.243 357.335 285.152 364.08 284.074 371.856C282.922 380.105 282.922 389.516 282.29 392.842C281.454 397.237 276.102 400.59 265.408 399.606C259.04 398.881 252.789 397.348 246.808 395.044C232.369 389.795 232.797 347.228 235.212 315.641C236.69 296.28 238.91 281.035 238.91 281.035C238.91 281.035 234.525 267.954 233.122 258.989C232.842 257.354 232.703 255.697 232.704 254.038C232.917 246.206 247.216 225.043 255.857 211.86C264.507 198.678 276.307 208.349 276.307 208.349L272.2 220.742C272.2 220.742 278.565 230.561 278.611 239.907C278.658 249.253 293.848 255.998 299.302 260.522C302.731 263.365 302.647 301.315 299.748 328.935Z" fill="#2F2E41"/>
<path d="M311.759 212.777C311.759 212.777 312.755 213.955 317.319 213.381C322.793 212.691 330.319 214.585 332.067 219.81C335.274 229.393 344.313 268.374 344.313 268.374C344.313 268.374 348.076 312.938 349.768 322.781C351.459 332.624 350.619 341.342 352.288 346.512C353.956 351.682 335.818 336.871 329.134 338.799C322.449 340.727 318.154 315.742 318.994 307.023C319.834 298.304 320.544 288.828 318.225 279.873C315.906 270.917 320.017 247.215 319.863 241.785C319.71 236.355 305.123 222.669 311.759 212.777Z" fill="#2F2E41"/>
<path d="M331.33 351.283C331.33 351.283 360.615 367.259 363.418 389.997C366.221 412.735 324.247 367.98 324.247 367.98L331.33 351.283Z" fill="#9F616A"/>
<path d="M348.047 335.159C348.047 335.159 357.021 380.387 371 377.984C384.98 375.582 363.192 332.556 363.192 332.556L348.047 335.159Z" fill="#9F616A"/>
<path d="M395.923 532.33C395.923 532.33 388.765 540.575 386.99 539.321C385.215 538.067 381.133 555.138 384.813 558.404C388.493 561.669 402.667 567.028 402.82 572.458C402.974 577.888 440.989 576.811 442.349 571.121C443.71 565.431 437.581 552.453 433.275 550.075C428.968 547.697 413.044 525.811 413.044 525.811C413.044 525.811 400.572 527.633 395.923 532.33Z" fill="#2F2E41"/>
<path opacity="0.1" d="M326.665 378.944C319.873 374.151 300.91 372.961 284.074 371.856C276.688 371.382 269.71 370.918 264.349 370.165C259.183 369.45 254.538 364.73 250.413 357.698C244.16 347.042 239.105 331.063 235.212 315.641C236.69 296.28 238.91 281.035 238.91 281.035C238.91 281.035 234.525 267.955 233.122 258.989C234.111 257.613 235.385 256.466 236.857 255.626C254.714 247.962 271.764 323.389 273.928 335.225C273.966 335.42 273.993 335.606 274.021 335.763C275.071 341.858 286.416 347.07 296.58 349.132C302.842 350.405 308.668 350.488 311.353 348.835C318.405 344.506 340.091 361.832 341.735 362.324C343.38 362.826 336.42 385.847 326.665 378.944Z" fill="black"/>
<path d="M236.86 250.983C236.86 250.983 223.881 257.111 229.584 285.752C235.286 314.393 246.775 363.087 264.345 365.524C281.914 367.961 316.9 367.404 326.661 374.301C336.422 381.198 343.379 358.177 341.734 357.68C340.089 357.183 318.402 339.864 311.351 344.193C304.299 348.523 275.714 340.964 274.023 331.121C272.331 321.278 255.009 243.187 236.86 250.983Z" fill="#2F2E41"/>
<path d="M330.387 237.248L344.652 270.344C344.652 270.344 346.088 269.627 347.756 274.797C349.424 279.967 350.205 284.51 353.127 287.905C356.05 291.3 369.053 339.733 369.443 342.005C369.834 344.276 351.484 352.107 347.384 345.796C343.284 339.485 330.387 237.248 330.387 237.248Z" fill="#2F2E41"/>
<path d="M282.564 186.254C283.624 185.971 283.78 184.563 283.815 183.467C284.005 177.595 287.542 171.57 293.163 169.861C295.32 169.269 297.578 169.145 299.787 169.496C302.94 169.916 305.984 170.932 308.758 172.489C310.222 173.312 311.658 174.303 313.319 174.554C314.415 174.72 319.164 176.101 320.256 176.295C322.657 176.722 324.889 178.87 327.193 178.071C329.397 177.306 329.885 174.453 329.938 172.12C330.06 166.807 326.025 159.453 322.472 155.5C319.776 152.5 315.716 151.115 311.747 150.395C307.111 149.651 302.412 149.365 297.72 149.542C291.368 149.655 284.841 150.146 279.113 152.894C273.386 155.642 268.575 161.111 268.301 167.457C268.244 168.779 268.38 170.106 268.269 171.425C267.998 174.641 266.289 177.546 265.488 180.673C264.915 182.967 264.83 185.356 265.237 187.686C265.644 190.015 266.535 192.233 267.852 194.197C269.977 197.325 273.318 200.154 273.195 203.934L277.804 199.159C278.493 198.634 278.98 197.888 279.185 197.046C279.39 196.205 279.3 195.319 278.93 194.535L277.298 188.173C276.879 187.037 276.83 185.798 277.157 184.632C278.906 180.311 280.796 186.725 282.564 186.254Z" fill="#2F2E41"/>
</svg>
